<svg xmlns="http://www.w3.org/2000/svg" xmlns:xlink="http://www.w3.org/1999/xlink" viewBox="0 0 750 500"><defs><style>.cls-1,.cls-50,.cls-55,.cls-57{fill:none;}.cls-2{isolation:isolate;}.cls-3{clip-path:url(#clip-path);}.cls-4{mix-blend-mode:color-dodge;fill:url(#radial-gradient);}.cls-5{fill:url(#linear-gradient);}.cls-6{fill:url(#linear-gradient-2);}.cls-7{fill:url(#linear-gradient-3);}.cls-8{fill:url(#linear-gradient-4);}.cls-9{fill:url(#linear-gradient-5);}.cls-10{fill:url(#linear-gradient-6);}.cls-11{fill:url(#linear-gradient-7);}.cls-12,.cls-14{fill:#fff;}.cls-12,.cls-89{mix-blend-mode:overlay;}.cls-13{fill:#fcfcfa;}.cls-15{fill:url(#linear-gradient-8);}.cls-16{fill:url(#linear-gradient-9);}.cls-17{fill:url(#linear-gradient-10);}.cls-18{fill:url(#linear-gradient-11);}.cls-19{fill:url(#linear-gradient-12);}.cls-20{fill:url(#linear-gradient-13);}.cls-21{fill:url(#linear-gradient-14);}.cls-22{fill:#bbe4ff;}.cls-23{fill:#0096ea;}.cls-24{fill:#080749;}.cls-25{fill:#f1bf9c;}.cls-26{fill:url(#linear-gradient-15);}.cls-27{fill:url(#linear-gradient-16);}.cls-28{fill:#070644;}.cls-29{fill:url(#linear-gradient-17);}.cls-30{fill:#191968;}.cls-31,.cls-32,.cls-68,.cls-82,.cls-83{opacity:0.33;}.cls-31{fill:url(#linear-gradient-18);}.cls-32{fill:url(#linear-gradient-19);}.cls-33{fill:#150b6d;}.cls-34{fill:url(#linear-gradient-20);}.cls-35{fill:url(#linear-gradient-21);}.cls-36{fill:url(#linear-gradient-22);}.cls-37{fill:url(#linear-gradient-23);}.cls-38{fill:url(#linear-gradient-24);}.cls-39{fill:url(#linear-gradient-25);}.cls-40{fill:url(#linear-gradient-26);}.cls-41{fill:url(#linear-gradient-27);}.cls-42{fill:url(#linear-gradient-28);}.cls-43{fill:url(#linear-gradient-29);}.cls-44{fill:url(#linear-gradient-30);}.cls-45{fill:url(#linear-gradient-31);}.cls-46{fill:url(#linear-gradient-32);}.cls-47{fill:url(#linear-gradient-33);}.cls-48{fill:url(#linear-gradient-34);}.cls-49{fill:url(#linear-gradient-35);}.cls-50,.cls-55,.cls-57{stroke-linecap:round;}.cls-50,.cls-55{stroke-linejoin:round;}.cls-50{stroke-dasharray:2.01 4.02;stroke:url(#linear-gradient-36);}.cls-51{fill:url(#linear-gradient-37);}.cls-52{fill:url(#linear-gradient-38);}.cls-53{fill:url(#linear-gradient-39);}.cls-54{fill:url(#linear-gradient-40);}.cls-55{stroke-dasharray:1.99 3.98;stroke:url(#linear-gradient-41);}.cls-56{fill:url(#linear-gradient-42);}.cls-57{stroke:#fff;stroke-miterlimit:10;stroke-width:0.72px;}.cls-58{fill:url(#linear-gradient-43);}.cls-59{fill:url(#linear-gradient-44);}.cls-60{fill:url(#linear-gradient-45);}.cls-61{fill:url(#linear-gradient-46);}.cls-62{fill:url(#linear-gradient-47);}.cls-63{fill:url(#linear-gradient-48);}.cls-64{fill:url(#linear-gradient-49);}.cls-65{fill:url(#linear-gradient-50);}.cls-66{fill:#ffd1a4;}.cls-67{fill:#f2ba88;}.cls-68{fill:url(#linear-gradient-51);}.cls-69{fill:#f6f9ff;}.cls-70{fill:url(#linear-gradient-52);}.cls-71{fill:#fffff9;}.cls-72{fill:url(#linear-gradient-53);}.cls-73{fill:#100942;}.cls-74{fill:url(#linear-gradient-54);}.cls-75{fill:url(#linear-gradient-55);}.cls-76{fill:url(#linear-gradient-56);}.cls-77{fill:url(#linear-gradient-57);}.cls-78{fill:url(#linear-gradient-58);}.cls-79{fill:url(#linear-gradient-59);}.cls-80{fill:url(#linear-gradient-60);}.cls-81{fill:#f4ccb0;}.cls-82{fill:url(#linear-gradient-61);}.cls-83{fill:url(#linear-gradient-62);}.cls-84{fill:url(#linear-gradient-63);}.cls-85{fill:#e3edfd;}.cls-86{fill:url(#linear-gradient-64);}.cls-87{fill:url(#linear-gradient-65);}.cls-88{mix-blend-mode:screen;opacity:0.8;fill:url(#linear-gradient-66);}.cls-103,.cls-90,.cls-91{opacity:0.5;}.cls-90{fill:url(#linear-gradient-67);}.cls-91{fill:url(#linear-gradient-68);}.cls-92{fill:url(#linear-gradient-69);}.cls-93,.cls-94,.cls-95,.cls-96{opacity:0.3;}.cls-93{fill:url(#linear-gradient-70);}.cls-94{fill:url(#linear-gradient-71);}.cls-95{fill:url(#linear-gradient-72);}.cls-96{fill:url(#linear-gradient-73);}.cls-97{fill:url(#linear-gradient-74);}.cls-98{fill:url(#linear-gradient-75);}.cls-99{fill:url(#linear-gradient-76);}.cls-100{fill:url(#linear-gradient-77);}.cls-101{fill:url(#linear-gradient-78);}.cls-102{fill:url(#linear-gradient-79);}.cls-103{fill:url(#linear-gradient-80);}.cls-104{fill:url(#linear-gradient-81);}</style><clipPath id="clip-path"><rect class="cls-1" width="750" height="500"/></clipPath><radialGradient id="radial-gradient" cx="334.71" cy="320.61" r="276.44" gradientTransform="matrix(1, 0.05, 0, 0.61, 0, 107.18)" gradientUnits="userSpaceOnUse"><stop offset="0" stop-color="#00bfd8"/><stop offset="0.15" stop-color="#00bfd8" stop-opacity="0.98"/><stop offset="0.29" stop-color="#00bfd8" stop-opacity="0.93"/><stop offset="0.42" stop-color="#00bfd8" stop-opacity="0.85"/><stop offset="0.55" stop-color="#00bfd8" stop-opacity="0.73"/><stop offset="0.68" stop-color="#00bfd8" stop-opacity="0.57"/><stop offset="0.8" stop-color="#00bfd8" stop-opacity="0.38"/><stop offset="0.92" stop-color="#00bfd8" stop-opacity="0.16"/><stop offset="1" stop-color="#00bfd8" stop-opacity="0"/></radialGradient><linearGradient id="linear-gradient" x1="234.34" y1="230.41" x2="536.91" y2="230.41" gradientUnits="userSpaceOnUse"><stop offset="0" stop-color="#70ffff"/><stop offset="0.7" stop-color="#22fffb"/><stop offset="1" stop-color="#00fff9"/></linearGradient><linearGradient id="linear-gradient-2" x1="250.19" y1="42.71" x2="521.52" y2="434.05" gradientUnits="userSpaceOnUse"><stop offset="0" stop-color="#00a7ff"/><stop offset="0.58" stop-color="#005afc"/><stop offset="1" stop-color="#001ef9"/></linearGradient><linearGradient id="linear-gradient-3" x1="231.99" y1="129.72" x2="531.16" y2="129.72" gradientUnits="userSpaceOnUse"><stop offset="0" stop-color="#004cff"/><stop offset="0.78" stop-color="#0029b1"/><stop offset="1" stop-color="#001e9a"/></linearGradient><linearGradient id="linear-gradient-4" x1="532.48" y1="229.34" x2="486.91" y2="194.05" gradientUnits="userSpaceOnUse"><stop offset="0" stop-color="#06c9fd"/><stop offset="0.67" stop-color="#b0eefe"/><stop offset="1" stop-color="#fff"/></linearGradient><linearGradient id="linear-gradient-5" x1="533.44" y1="228.09" x2="487.87" y2="192.81" xlink:href="#linear-gradient-4"/><linearGradient id="linear-gradient-6" x1="534.4" y1="226.85" x2="488.84" y2="191.57" xlink:href="#linear-gradient-4"/><linearGradient id="linear-gradient-7" x1="379.09" y1="257.89" x2="324.89" y2="180.06" gradientUnits="userSpaceOnUse"><stop offset="0" stop-color="#00a7e5"/><stop offset="1" stop-color="#06c9fd"/></linearGradient><linearGradient id="linear-gradient-8" x1="243.38" y1="125.48" x2="303.73" y2="181.93" gradientTransform="matrix(1, 0.05, 0, 1, 0, -22.5)" gradientUnits="userSpaceOnUse"><stop offset="0" stop-color="#06c9fd"/><stop offset="0.25" stop-color="#04aef1"/><stop offset="1" stop-color="#0060d0"/></linearGradient><linearGradient id="linear-gradient-9" x1="245.82" y1="122.87" x2="306.17" y2="179.32" xlink:href="#linear-gradient-8"/><linearGradient id="linear-gradient-10" x1="261.7" y1="105.9" x2="322.05" y2="162.35" xlink:href="#linear-gradient-8"/><linearGradient id="linear-gradient-11" x1="177.41" y1="196.02" x2="177.41" y2="145.61" xlink:href="#linear-gradient-4"/><linearGradient id="linear-gradient-12" x1="195.09" y1="161.22" x2="181.19" y2="150.46" xlink:href="#linear-gradient-4"/><linearGradient id="linear-gradient-13" x1="195.38" y1="160.85" x2="181.48" y2="150.08" xlink:href="#linear-gradient-4"/><linearGradient id="linear-gradient-14" x1="195.67" y1="160.47" x2="181.77" y2="149.7" xlink:href="#linear-gradient-4"/><linearGradient id="linear-gradient-15" x1="243.35" y1="231.29" x2="254.29" y2="235.11" gradientUnits="userSpaceOnUse"><stop offset="0" stop-color="#170960"/><stop offset="1" stop-color="#24188b"/></linearGradient><linearGradient id="linear-gradient-16" x1="255.72" y1="213.89" x2="273.84" y2="216.61" xlink:href="#linear-gradient-15"/><linearGradient id="linear-gradient-17" x1="248.22" y1="242.19" x2="266.34" y2="244.91" gradientTransform="matrix(0.99, 0.1, -0.1, 0.99, 26.67, -23.84)" xlink:href="#linear-gradient-15"/><linearGradient id="linear-gradient-18" x1="265.16" y1="185.33" x2="271.53" y2="185.33" gradientUnits="userSpaceOnUse"><stop offset="0" stop-color="#00a7e5"/><stop offset="0.36" stop-color="#02b3ed" stop-opacity="0.66"/><stop offset="1" stop-color="#06c9fd" stop-opacity="0"/></linearGradient><linearGradient id="linear-gradient-19" x1="256.77" y1="160.32" x2="265.25" y2="160.32" xlink:href="#linear-gradient-18"/><linearGradient id="linear-gradient-20" x1="545.03" y1="265.16" x2="564.33" y2="289.28" gradientUnits="userSpaceOnUse"><stop offset="0" stop-color="#00fff9"/><stop offset="0.41" stop-color="#39fffc"/><stop offset="1" stop-color="#86ffff"/></linearGradient><linearGradient id="linear-gradient-21" x1="567.31" y1="-227.17" x2="590.06" y2="-227.17" gradientTransform="matrix(1, 1.25, 0, 1, 0, -211.2)" xlink:href="#linear-gradient-20"/><linearGradient id="linear-gradient-22" x1="567.31" y1="-222.23" x2="590.06" y2="-222.23" gradientTransform="matrix(1, 1.25, 0, 1, 0, -211.2)" xlink:href="#linear-gradient-20"/><linearGradient id="linear-gradient-23" x1="567.31" y1="-217.29" x2="590.06" y2="-217.29" gradientTransform="matrix(1, 1.25, 0, 1, 0, -211.2)" xlink:href="#linear-gradient-20"/><linearGradient id="linear-gradient-24" x1="567.31" y1="-208.74" x2="578.46" y2="-208.74" gradientTransform="matrix(1, 1.25, 0, 1, 0, -211.2)" xlink:href="#linear-gradient-20"/><linearGradient id="linear-gradient-25" x1="558.38" y1="234.42" x2="550.47" y2="220.66" gradientTransform="matrix(1, 0.62, 0, 1, 0, -266.57)" xlink:href="#linear-gradient-20"/><linearGradient id="linear-gradient-26" x1="545.03" y1="295.97" x2="564.33" y2="320.09" xlink:href="#linear-gradient-20"/><linearGradient id="linear-gradient-27" x1="567.31" y1="-196.36" x2="590.06" y2="-196.36" gradientTransform="matrix(1, 1.25, 0, 1, 0, -211.2)" xlink:href="#linear-gradient-20"/><linearGradient id="linear-gradient-28" x1="567.31" y1="-191.42" x2="590.06" y2="-191.42" gradientTransform="matrix(1, 1.25, 0, 1, 0, -211.2)" xlink:href="#linear-gradient-20"/><linearGradient id="linear-gradient-29" x1="567.31" y1="-186.48" x2="590.06" y2="-186.48" gradientTransform="matrix(1, 1.25, 0, 1, 0, -211.2)" xlink:href="#linear-gradient-20"/><linearGradient id="linear-gradient-30" x1="567.31" y1="-177.93" x2="578.46" y2="-177.93" gradientTransform="matrix(1, 1.25, 0, 1, 0, -211.2)" xlink:href="#linear-gradient-20"/><linearGradient id="linear-gradient-31" x1="545.03" y1="326.78" x2="564.33" y2="350.9" xlink:href="#linear-gradient-20"/><linearGradient id="linear-gradient-32" x1="567.31" y1="-165.55" x2="590.06" y2="-165.55" gradientTransform="matrix(1, 1.25, 0, 1, 0, -211.2)" xlink:href="#linear-gradient-20"/><linearGradient id="linear-gradient-33" x1="567.31" y1="-160.61" x2="590.06" y2="-160.61" gradientTransform="matrix(1, 1.25, 0, 1, 0, -211.2)" xlink:href="#linear-gradient-20"/><linearGradient id="linear-gradient-34" x1="567.31" y1="-155.67" x2="590.06" y2="-155.67" gradientTransform="matrix(1, 1.25, 0, 1, 0, -211.2)" xlink:href="#linear-gradient-20"/><linearGradient id="linear-gradient-35" x1="567.31" y1="-147.12" x2="578.46" y2="-147.12" gradientTransform="matrix(1, 1.25, 0, 1, 0, -211.2)" xlink:href="#linear-gradient-20"/><linearGradient id="linear-gradient-36" x1="395.9" y1="257.33" x2="507.35" y2="257.33" gradientUnits="userSpaceOnUse"><stop offset="0" stop-color="#fff"/><stop offset="1" stop-color="#fff"/></linearGradient><linearGradient id="linear-gradient-37" x1="472.45" y1="270.06" x2="430.45" y2="218.06" gradientUnits="userSpaceOnUse"><stop offset="0" stop-color="#069afd"/><stop offset="0.22" stop-color="#05b1fd"/><stop offset="1" stop-color="aqua"/></linearGradient><linearGradient id="linear-gradient-38" x1="410.38" y1="295.52" x2="492.88" y2="295.52" gradientTransform="matrix(1, 0.63, 0, 1, 0, -296.24)" xlink:href="#linear-gradient-36"/><linearGradient id="linear-gradient-39" x1="410.38" y1="303.24" x2="492.88" y2="303.24" gradientTransform="matrix(1, 0.63, 0, 1, 0, -296.24)" xlink:href="#linear-gradient-36"/><linearGradient id="linear-gradient-40" x1="410.38" y1="311" x2="456.89" y2="311" gradientTransform="matrix(1, 0.63, 0, 1, 0, -296.24)" xlink:href="#linear-gradient-36"/><linearGradient id="linear-gradient-41" x1="319.35" y1="311.43" x2="455.55" y2="311.43" xlink:href="#linear-gradient-36"/><linearGradient id="linear-gradient-42" x1="359.39" y1="168.8" x2="408.33" y2="168.8" gradientTransform="matrix(1, 0.06, 0, 1, 0, -22.26)" xlink:href="#linear-gradient-8"/><linearGradient id="linear-gradient-43" x1="365.28" y1="146.05" x2="373.15" y2="156.8" gradientTransform="matrix(1, 0.06, 0, 1, 0, -20.88)" gradientUnits="userSpaceOnUse"><stop offset="0" stop-color="#06d8fd"/><stop offset="0.34" stop-color="#04aeed"/><stop offset="1" stop-color="#0060d0"/></linearGradient><linearGradient id="linear-gradient-44" x1="363.63" y1="147.26" x2="371.51" y2="158.01" xlink:href="#linear-gradient-43"/><linearGradient id="linear-gradient-45" x1="383.56" y1="152.07" x2="407.84" y2="188.6" xlink:href="#linear-gradient-43"/><linearGradient id="linear-gradient-46" x1="381.55" y1="153.4" x2="405.82" y2="189.94" xlink:href="#linear-gradient-43"/><linearGradient id="linear-gradient-47" x1="379.53" y1="154.74" x2="403.81" y2="191.28" xlink:href="#linear-gradient-43"/><linearGradient id="linear-gradient-48" x1="377.52" y1="156.08" x2="401.79" y2="192.62" xlink:href="#linear-gradient-43"/><linearGradient id="linear-gradient-49" x1="375.5" y1="157.42" x2="399.78" y2="193.96" xlink:href="#linear-gradient-43"/><linearGradient id="linear-gradient-50" x1="373.49" y1="158.76" x2="397.76" y2="195.29" xlink:href="#linear-gradient-43"/><linearGradient id="linear-gradient-51" x1="362.71" y1="108.71" x2="388.79" y2="108.71" xlink:href="#linear-gradient-18"/><linearGradient id="linear-gradient-52" x1="463.79" y1="372.08" x2="501.01" y2="372.08" gradientUnits="userSpaceOnUse"><stop offset="0" stop-color="#069afd"/><stop offset="1" stop-color="#0061ff"/></linearGradient><linearGradient id="linear-gradient-53" x1="291.22" y1="365.33" x2="329.1" y2="365.33" xlink:href="#linear-gradient-15"/><linearGradient id="linear-gradient-54" x1="322.74" y1="297.23" x2="351.92" y2="297.23" xlink:href="#linear-gradient-15"/><linearGradient id="linear-gradient-55" x1="302.13" y1="293.5" x2="322.74" y2="293.5" gradientUnits="userSpaceOnUse"><stop offset="0" stop-color="#ffd30e"/><stop offset="0.39" stop-color="#ffad08"/><stop offset="0.78" stop-color="#ff8d02"/><stop offset="1" stop-color="#ff8100"/></linearGradient><linearGradient id="linear-gradient-56" x1="332.55" y1="278.7" x2="332.44" y2="300.37" gradientUnits="userSpaceOnUse"><stop offset="0" stop-color="#00fff9"/><stop offset="0.5" stop-color="#00aee3"/><stop offset="1" stop-color="#0060ce"/></linearGradient><linearGradient id="linear-gradient-57" x1="314.9" y1="269.91" x2="323.7" y2="293.23" xlink:href="#linear-gradient-56"/><linearGradient id="linear-gradient-58" x1="331.23" y1="296.56" x2="338.98" y2="310.83" xlink:href="#linear-gradient-56"/><linearGradient id="linear-gradient-59" x1="331.31" y1="311.72" x2="351.91" y2="311.72" xlink:href="#linear-gradient-52"/><linearGradient id="linear-gradient-60" x1="302.13" y1="307.99" x2="331.31" y2="307.99" xlink:href="#linear-gradient-52"/><linearGradient id="linear-gradient-61" x1="307.79" y1="277.18" x2="317.25" y2="277.18" xlink:href="#linear-gradient-18"/><linearGradient id="linear-gradient-62" x1="318.75" y1="306.59" x2="327.33" y2="306.59" xlink:href="#linear-gradient-18"/><linearGradient id="linear-gradient-63" x1="160.61" y1="82.76" x2="181.25" y2="82.76" gradientUnits="userSpaceOnUse"><stop offset="0" stop-color="#3660cd"/><stop offset="1" stop-color="#1627f9"/></linearGradient><linearGradient id="linear-gradient-64" x1="160.23" y1="167.23" x2="194.6" y2="167.23" xlink:href="#linear-gradient-20"/><linearGradient id="linear-gradient-65" x1="420.7" y1="114.8" x2="441.87" y2="145.1" gradientTransform="matrix(1, 0.05, 0, 1, 0, -24.37)" gradientUnits="userSpaceOnUse"><stop offset="0" stop-color="aqua"/><stop offset="1" stop-color="aqua"/></linearGradient><linearGradient id="linear-gradient-66" x1="447.56" y1="154.67" x2="508.51" y2="154.67" gradientTransform="matrix(1, 0.05, 0, 1, 0, -25.75)" gradientUnits="userSpaceOnUse"><stop offset="0" stop-color="#00eaff"/><stop offset="0.54" stop-color="#0089e6"/><stop offset="1" stop-color="#003bd2"/></linearGradient><linearGradient id="linear-gradient-67" x1="312.59" y1="53.23" x2="319.36" y2="62.91" xlink:href="#linear-gradient-65"/><linearGradient id="linear-gradient-68" x1="600.29" y1="223.92" x2="607.87" y2="234.77" xlink:href="#linear-gradient-65"/><linearGradient id="linear-gradient-69" x1="564.29" y1="211.55" x2="570.23" y2="220.04" xlink:href="#linear-gradient-65"/><linearGradient id="linear-gradient-70" x1="417.19" y1="75.28" x2="423.12" y2="83.77" xlink:href="#linear-gradient-65"/><linearGradient id="linear-gradient-71" x1="618.78" y1="299.22" x2="624.72" y2="307.71" xlink:href="#linear-gradient-65"/><linearGradient id="linear-gradient-72" x1="575.44" y1="412.18" x2="581.37" y2="420.67" xlink:href="#linear-gradient-65"/><linearGradient id="linear-gradient-73" x1="143.06" y1="176.32" x2="148.99" y2="184.81" xlink:href="#linear-gradient-65"/><linearGradient id="linear-gradient-74" x1="191.16" y1="74.96" x2="200.14" y2="87.82" xlink:href="#linear-gradient-65"/><linearGradient id="linear-gradient-75" x1="334.99" y1="60.36" x2="343.97" y2="73.22" xlink:href="#linear-gradient-65"/><linearGradient id="linear-gradient-76" x1="500.86" y1="96.56" x2="506.64" y2="104.83" xlink:href="#linear-gradient-65"/><linearGradient id="linear-gradient-77" x1="594.09" y1="185.08" x2="599.87" y2="193.35" xlink:href="#linear-gradient-65"/><linearGradient id="linear-gradient-78" x1="539.82" y1="175.38" x2="543.51" y2="180.67" xlink:href="#linear-gradient-65"/><linearGradient id="linear-gradient-79" x1="462.84" y1="115.83" x2="466.54" y2="121.12" xlink:href="#linear-gradient-65"/><linearGradient id="linear-gradient-80" x1="192.22" y1="254.17" x2="195.92" y2="259.46" xlink:href="#linear-gradient-65"/><linearGradient id="linear-gradient-81" x1="279.12" y1="91.07" x2="251.93" y2="68.03" xlink:href="#linear-gradient-3"/></defs><g class="cls-2"><g id="OBJECTS"><g class="cls-3"><path class="cls-4" d="M738.13,341l3.49-1.84a.76.76,0,0,0,.29-1.06.81.81,0,0,0-1.08-.35L736.54,340l-27.12-17.08L713,321a.77.77,0,0,0,.29-1.07.82.82,0,0,0-1.08-.35l-4.38,2.3-27.12-17.08,3.68-1.94a.77.77,0,0,0,.29-1.06.82.82,0,0,0-1.09-.35l-4.47,2.35L652,286.75l3.76-2a.78.78,0,0,0,.3-1.07.84.84,0,0,0-1.09-.35l-4.56,2.4-27.11-17.09,3.86-2a.79.79,0,0,0,.29-1.07.84.84,0,0,0-1.09-.35l-4.65,2.44-27.12-17.08,3.95-2.07a.77.77,0,0,0,.29-1.07.81.81,0,0,0-1.08-.35L593,249.59l-27.12-17.08,4-2.12a.77.77,0,0,0,.29-1.07.83.83,0,0,0-1.08-.35l-4.83,2.54-27.12-17.08,4.13-2.17a.77.77,0,0,0,.29-1.07.83.83,0,0,0-1.08-.35l-4.93,2.59-27.11-17.08,4.22-2.22a.79.79,0,0,0,.29-1.07.85.85,0,0,0-1.09-.35l-5,2.64L479.8,178.27l4.31-2.27a.78.78,0,0,0,.3-1.07.83.83,0,0,0-1.09-.34l-5.1,2.68L451.1,160.18l4.4-2.31a.76.76,0,0,0,.29-1.06.81.81,0,0,0-1.08-.35l-5.19,2.72L422.4,142.1l4.49-2.36a.77.77,0,0,0,.29-1.07.82.82,0,0,0-1.08-.34l-5.29,2.77L393.7,124l4.58-2.41a.76.76,0,0,0,.29-1.06.81.81,0,0,0-1.08-.35L392.11,123,365,105.94l4.68-2.45a.79.79,0,0,0,.29-1.07.84.84,0,0,0-1.09-.35l-5.46,2.87L336.29,87.86l4.77-2.5a.79.79,0,0,0,.29-1.07.84.84,0,0,0-1.09-.35l-5.55,2.92-5.56-3.5a.77.77,0,0,0-1.08.23.82.82,0,0,0,.29,1.1l4.76,3L306,101.93l-5.47-3.44a.76.76,0,0,0-1.08.23.82.82,0,0,0,.29,1.1l4.67,3L277.3,117l-5.37-3.39a.78.78,0,0,0-1.09.23.83.83,0,0,0,.3,1.1l4.58,2.89L248.6,132.08l-5.28-3.33a.78.78,0,0,0-1.09.23.84.84,0,0,0,.29,1.1l4.5,2.83L219.9,147.15l-5.2-3.27a.77.77,0,0,0-1.08.23.82.82,0,0,0,.29,1.1l4.4,2.78L191.2,162.22,186.09,159a.77.77,0,0,0-1.08.23.82.82,0,0,0,.29,1.1l4.31,2.72L162.5,177.3l-5-3.16a.76.76,0,0,0-1.08.23.82.82,0,0,0,.29,1.1l4.22,2.66-27.12,14.24-4.92-3.1a.76.76,0,0,0-1.08.23.82.82,0,0,0,.29,1.1l4.13,2.6-27.12,14.24-4.83-3a.78.78,0,0,0-1.09.23.83.83,0,0,0,.3,1.1l4,2.55L76.39,222.52l-4.74-3a.77.77,0,0,0-1.09.23.84.84,0,0,0,.29,1.1l4,2.49L47.68,237.59,43,234.66a.76.76,0,0,0-1.08.23.82.82,0,0,0,.29,1.1l3.86,2.43L19,252.66l-4.56-2.87a.76.76,0,0,0-1.08.23.82.82,0,0,0,.29,1.1l3.77,2.38L-9.72,267.74l-4.47-2.82a.77.77,0,0,0-1.08.23.82.82,0,0,0,.29,1.1l3.67,2.32-27.11,14.24-4.38-2.76a.78.78,0,0,0-1.08.23.82.82,0,0,0,.29,1.1l3.58,2.26-27.11,14.24-4.29-2.7a.78.78,0,0,0-1.09.23.82.82,0,0,0,.29,1.1l3.5,2.2-3.5,1.84a.77.77,0,0,0-.29,1.07.85.85,0,0,0,.69.43.82.82,0,0,0,.4-.08l4.29-2.26L-40,316.8l-3.58,1.88a.77.77,0,0,0-.29,1.07.82.82,0,0,0,.68.43.8.8,0,0,0,.4-.08l4.38-2.3,27.11,17.08L-15,336.81a.77.77,0,0,0-.29,1.07.84.84,0,0,0,.68.43.78.78,0,0,0,.4-.09l4.47-2.34L17.4,353l-3.77,2a.77.77,0,0,0-.29,1.07.86.86,0,0,0,.69.43.68.68,0,0,0,.39-.09L19,354,46.1,371l-3.86,2a.76.76,0,0,0-.29,1.06.85.85,0,0,0,.69.44.77.77,0,0,0,.39-.09L47.68,372,74.8,389.12l-4,2.07a.79.79,0,0,0-.29,1.07.85.85,0,0,0,.69.43.8.8,0,0,0,.4-.08l4.74-2.49L103.5,407.2l-4,2.13a.77.77,0,0,0-.3,1.06.86.86,0,0,0,.69.44.81.81,0,0,0,.4-.09l4.83-2.54,27.12,17.09-4.13,2.16a.77.77,0,0,0-.29,1.07.83.83,0,0,0,.68.43.78.78,0,0,0,.4-.08l4.92-2.58,27.12,17.08-4.22,2.21a.77.77,0,0,0-.29,1.07.84.84,0,0,0,.69.43.76.76,0,0,0,.39-.08l5-2.63,27.12,17.08-4.31,2.26a.77.77,0,0,0-.29,1.07.85.85,0,0,0,.69.43.76.76,0,0,0,.39-.08l5.1-2.68,27.12,17.08-4.4,2.31a.79.79,0,0,0-.29,1.07.85.85,0,0,0,.69.43.8.8,0,0,0,.4-.08l5.19-2.73L247,497.61,242.52,500a.79.79,0,0,0-.29,1.07.85.85,0,0,0,.69.43.71.71,0,0,0,.4-.09l5.28-2.77,27.11,17.08-4.57,2.41a.77.77,0,0,0-.3,1.06.86.86,0,0,0,.69.44.81.81,0,0,0,.4-.09l5.37-2.82,27.12,17.08-4.67,2.46a.77.77,0,0,0-.29,1.07.86.86,0,0,0,.68.43.7.7,0,0,0,.4-.09l5.47-2.87,27.11,17.09-4.76,2.5a.76.76,0,0,0-.29,1.06.85.85,0,0,0,.69.44.77.77,0,0,0,.39-.09l5.56-2.91,5.55,3.49a.82.82,0,0,0,.4.13.73.73,0,0,0,.68-.36.82.82,0,0,0-.29-1.1l-4.76-3,27.12-14.24,5.46,3.45a1,1,0,0,0,.4.12A.74.74,0,0,0,370,541a.84.84,0,0,0-.29-1.1L365,537l27.12-14.24,5.38,3.38a.82.82,0,0,0,.39.13.78.78,0,0,0,.69-.36.82.82,0,0,0-.29-1.1l-4.58-2.88,27.11-14.24L426.1,511a.82.82,0,0,0,.39.13.75.75,0,0,0,.69-.36.82.82,0,0,0-.29-1.1l-4.49-2.83,27.12-14.24,5.19,3.28a.93.93,0,0,0,.4.12.72.72,0,0,0,.68-.36.82.82,0,0,0-.29-1.1l-4.4-2.77,27.12-14.24,5.1,3.21a.86.86,0,0,0,.4.13.78.78,0,0,0,.69-.36.83.83,0,0,0-.3-1.1l-4.3-2.71,27.11-14.24,5,3.15a.86.86,0,0,0,.4.13.76.76,0,0,0,.69-.36.84.84,0,0,0-.29-1.1l-4.22-2.66,27.11-14.24,4.93,3.1a.82.82,0,0,0,.39.13.76.76,0,0,0,.69-.36.82.82,0,0,0-.29-1.1l-4.13-2.6,27.12-14.24,4.83,3.05a.93.93,0,0,0,.39.12.73.73,0,0,0,.69-.36A.82.82,0,0,0,570,434l-4-2.54L593,417.2l4.74,3a.82.82,0,0,0,.4.13.73.73,0,0,0,.68-.36.82.82,0,0,0-.29-1.1l-3.94-2.49,27.11-14.24,4.65,2.93a.82.82,0,0,0,.4.13.74.74,0,0,0,.68-.36.82.82,0,0,0-.29-1.1l-3.85-2.43,27.11-14.24,4.56,2.88a1,1,0,0,0,.4.12.74.74,0,0,0,.69-.36.83.83,0,0,0-.3-1.1L652,386.22,679.14,372l4.46,2.81a.86.86,0,0,0,.4.13.78.78,0,0,0,.69-.36.84.84,0,0,0-.29-1.1l-3.68-2.32,27.12-14.23,4.38,2.75a.82.82,0,0,0,.39.13.75.75,0,0,0,.69-.36.82.82,0,0,0-.29-1.1l-3.59-2.26,27.12-14.24,4.29,2.7a.82.82,0,0,0,.4.13.72.72,0,0,0,.68-.36.82.82,0,0,0-.29-1.1Zm-31.88-18.25L679.14,337,652,319.91l27.11-14.24Zm-373.13-3L306,334l-27.12-17.08L306,302.69Zm-25.53-17.91,27.12-14.24,27.11,17.08-27.11,14.24Zm27.12,18.91,27.11,17.09-27.11,14.23L307.59,335Zm1.58-.83,27.12-14.24,27.12,17.08L363.41,337ZM365,304.87l27.11-14.24,27.12,17.08L392.11,322Zm-1.59-1-27.12-17.09,27.12-14.24,27.12,17.09Zm-28.7-18.08L307.59,268.7l27.12-14.24,27.11,17.09Zm-1.59.83L306,300.86l-27.12-17.08L306,269.54Zm-28.7,15.07L277.3,315.93l-27.11-17.08,27.11-14.24Zm-28.7,15.07L248.6,331l-27.11-17.08,27.11-14.24Zm1.58,1,27.12,17.09L277.3,349.09,250.19,332ZM306,335.85l27.11,17.08L306,367.17l-27.12-17.08Zm28.7,18.08L361.82,371l-27.11,14.24-27.12-17.08Zm1.58-.84,27.12-14.24,27.11,17.09-27.11,14.24ZM365,338l27.11-14.24,27.12,17.08L392.11,355.1ZM393.7,323l27.12-14.24,27.11,17.08L420.81,340Zm28.7-15.08,27.12-14.23,27.11,17.08L449.52,325Zm-1.58-1L393.7,289.79l27.11-14.24,27.12,17.09Zm-28.71-18.08L365,271.71l27.11-14.24,27.12,17.09Zm-28.7-18.08-27.12-17.08,27.12-14.24,27.11,17.08Zm-28.7-18.08-27.12-17.08,27.12-14.24,27.11,17.08Zm-1.59.83L306,267.7l-27.12-17.08L306,236.38Zm-28.7,15.08L277.3,282.78,250.19,265.7l27.11-14.25Zm-28.7,15.07L248.6,297.85l-27.11-17.08,27.11-14.24ZM247,298.68,219.9,312.92l-27.12-17.08L219.9,281.6Zm-28.7,15.08L191.19,328l-27.11-17.09,27.12-14.24Zm1.59,1L247,331.84,219.9,346.08,192.78,329Zm28.7,18.08,27.12,17.08L248.6,364.16l-27.12-17.08Zm28.7,18.08L304.42,368,277.3,382.24l-27.11-17.08ZM306,369l27.11,17.08L306,400.32l-27.11-17.08Zm28.7,18.08,27.12,17.08-27.12,14.25-27.12-17.09Zm1.58-.83L363.41,372l27.12,17.08-27.12,14.24ZM365,371.18l27.11-14.24L419.23,374l-27.12,14.24Zm28.7-15.08,27.11-14.24L447.93,359l-27.11,14.24ZM422.4,341l27.12-14.24,27.12,17.08-27.12,14.24ZM451.1,326l27.12-14.24,27.12,17.08L478.22,343Zm28.7-15.08,27.12-14.24L534,313.73,506.92,328Zm-1.58-1L451.1,292.8l27.12-14.24,27.11,17.08Zm-28.7-18.08L422.4,274.72l27.12-14.24,27.11,17.08Zm-28.71-18.08L393.7,256.64l27.11-14.24,27.12,17.08Zm-28.7-18.08L365,238.56l27.12-14.24,27.12,17.08Zm-28.7-18.08-27.12-17.08,27.12-14.24,27.11,17.08Zm-28.7-18.08-27.12-17.09,27.12-14.24,27.11,17.09Zm-1.59.83L306,234.55l-27.12-17.08L306,203.23Zm-28.7,15.07L277.3,249.62l-27.11-17.08L277.3,218.3Zm-28.7,15.08L248.6,264.7l-27.12-17.09,27.12-14.24ZM247,265.53,219.9,279.77l-27.12-17.08,27.12-14.24Zm-28.7,15.07L191.2,294.84l-27.12-17.08,27.12-14.24Zm-28.7,15.07-27.12,14.25-27.11-17.09,27.11-14.24Zm-28.7,15.08L133.79,325l-27.11-17.08,27.11-14.24Zm1.58,1,27.12,17.08-27.12,14.24L135.38,326Zm28.7,18.08,27.12,17.08L191.2,361.15l-27.12-17.08Zm28.71,18.08L247,365,219.9,379.23l-27.12-17.08ZM248.6,366l27.12,17.08L248.6,397.31l-27.11-17.08Zm28.7,18.08,27.12,17.09L277.3,415.4l-27.11-17.09ZM306,402.16l27.12,17.08L306,433.48,278.89,416.4Zm28.71,18.08,27.11,17.08-27.11,14.24-27.12-17.08Zm1.58-.84,27.12-14.24,27.12,17.08-27.12,14.25ZM365,404.33l27.11-14.24,27.12,17.08-27.12,14.24Zm28.7-15.07L420.82,375l27.11,17.08-27.12,14.24Zm28.7-15.07L449.52,360,476.63,377l-27.11,14.24Zm28.7-15.08,27.12-14.24L505.34,362l-27.12,14.24ZM479.81,344l27.11-14.24L534,346.88l-27.12,14.24ZM508.51,329l27.11-14.24,27.12,17.08-27.12,14.24Zm28.7-15.08,27.12-14.24,27.11,17.08L564.32,331Zm-1.59-1-27.11-17.08,27.11-14.24,27.12,17.08Zm-28.7-18.08-27.11-17.08,27.11-14.24L534,280.57Zm-28.7-18.08L451.1,259.65l27.12-14.24,27.12,17.08Zm-28.7-18.08L422.4,241.57l27.12-14.24,27.11,17.08Zm-28.71-18.08L393.7,223.48l27.11-14.24,27.12,17.09Zm-28.7-18.09L365,205.4l27.11-14.24,27.12,17.08Zm-28.7-18.08-27.12-17.08,27.12-14.24,27.12,17.08Zm-28.7-18.08-27.12-17.08L334.71,155l27.11,17.08Zm-1.59.83L306,201.39l-27.11-17.08L306,170.07Zm-28.7,15.08L277.3,216.47l-27.11-17.09,27.11-14.23Zm-28.7,15.07L248.6,231.54l-27.11-17.08,27.11-14.24ZM247,232.37,219.9,246.61l-27.12-17.08,27.12-14.24Zm-28.7,15.08L191.2,261.69,164.08,244.6l27.11-14.24Zm-28.7,15.07-27.12,14.24-27.11-17.08,27.11-14.24Zm-28.7,15.07-27.12,14.24-27.12-17.08,27.12-14.24ZM132.2,292.67l-27.11,14.24L78,289.82l27.12-14.24Zm-28.7,15.07L76.39,322,49.27,304.9l27.12-14.24Zm1.59,1,27.11,17.08-27.11,14.24L78,323Zm28.7,18.08,27.12,17.08-27.12,14.24-27.11-17.08Zm28.7,18.08L189.61,362l-27.12,14.23-27.11-17.08ZM191.2,363l27.11,17.09L191.2,394.31l-27.12-17.09Zm28.7,18.09L247,398.15,219.9,412.39l-27.12-17.08Zm28.7,18.08,27.12,17.08L248.6,430.47l-27.11-17.08Zm28.7,18.08,27.12,17.08L277.3,448.55l-27.11-17.08ZM306,435.31l27.11,17.08L306,466.63l-27.12-17.08Zm28.7,18.08,27.11,17.08-27.11,14.24-27.12-17.08Zm1.58-.83,27.12-14.24,27.11,17.08-27.11,14.24ZM365,437.48l27.12-14.24,27.12,17.09-27.12,14.24Zm28.71-15.07,27.11-14.24,27.12,17.08-27.12,14.24Zm28.7-15.07,27.12-14.24,27.11,17.08-27.11,14.24Zm28.7-15.07L478.22,378l27.11,17.08-27.11,14.24Zm28.71-15.08L506.92,363,534,380l-27.12,14.24Zm28.7-15.07,27.11-14.24L562.74,365,535.62,379.2Zm28.7-15.07,27.11-14.24,27.12,17.08-27.12,14.24ZM565.91,332,593,317.73l27.11,17.08L593,349.06Zm28.7-15.07,27.12-14.24,27.11,17.08L621.73,334Zm-1.58-1-27.12-17.08L593,284.58l27.11,17.08Zm-28.7-18.08-27.12-17.08,27.12-14.24,27.11,17.08Zm-28.71-18.08-27.11-17.08,27.11-14.24,27.12,17.08Zm-28.7-18.08-27.11-17.09,27.11-14.23L534,247.42Zm-28.7-18.08L451.1,226.49l27.12-14.24,27.12,17.09Zm-28.7-18.09L422.4,208.41l27.12-14.24,27.11,17.08Zm-28.71-18.08L393.7,190.33l27.11-14.24,27.12,17.08Zm-28.7-18.08L365,172.25,392.11,158l27.12,17.08Zm-28.7-18.08-27.12-17.08,27.12-14.24L390.52,157Zm-28.7-18.08-27.12-17.08,27.12-14.24,27.11,17.08Zm-1.59.83L306,168.24l-27.11-17.08L306,136.92Zm-28.7,15.07L277.3,183.31l-27.11-17.08L277.3,152Zm-28.71,15.08L248.6,198.39,221.49,181.3l27.11-14.23ZM247,199.22,219.9,213.46l-27.12-17.08,27.12-14.24Zm-28.7,15.07-27.12,14.24-27.11-17.08,27.12-14.24Zm-28.7,15.08L162.49,243.6l-27.11-17.08,27.11-14.24Zm-28.7,15.07-27.12,14.24L106.68,241.6l27.11-14.24Zm-28.7,15.07-27.12,14.24L78,256.67l27.12-14.24ZM103.5,274.59,76.39,288.83,49.27,271.74,76.39,257.5ZM74.8,289.66,47.68,303.9,20.57,286.82l27.11-14.24ZM46.1,304.73,19,319-8.13,301.89,19,287.65Zm1.58,1L74.8,322.81,47.68,337.05,20.57,320Zm28.71,18.08,27.11,17.08L76.39,355.14,49.27,338.05Zm28.7,18.08L132.2,359l-27.11,14.24L78,356.13ZM133.79,360l27.12,17.09L133.79,391.3l-27.12-17.08Zm28.7,18.09,27.12,17.08-27.12,14.24L135.38,392.3Zm28.71,18.08,27.11,17.08-27.12,14.24-27.11-17.08Zm28.7,18.08L247,431.3,219.9,445.54l-27.12-17.08Zm28.7,18.08,27.12,17.08L248.6,463.62l-27.12-17.08Zm28.7,18.08,27.12,17.08L277.3,481.71l-27.11-17.09ZM306,468.46l27.11,17.09L306,499.79,278.89,482.7Zm28.7,18.09,27.11,17.08-27.11,14.24-27.12-17.08Zm1.58-.84,27.12-14.24,27.12,17.09-27.12,14.23ZM365,470.64l27.12-14.24,27.12,17.08-27.12,14.24Zm28.71-15.07,27.11-14.24,27.12,17.08-27.12,14.24Zm28.7-15.08,27.12-14.24,27.11,17.09-27.11,14.24Zm28.7-15.07,27.12-14.24,27.12,17.08L478.22,442.5Zm28.7-15.07,27.12-14.24L534,413.19l-27.12,14.24Zm28.71-15.08L535.62,381l27.12,17.09-27.12,14.24Zm28.7-15.07L564.32,366,591.44,383l-27.11,14.24Zm28.7-15.07L593,350.89,620.14,368,593,382.21Zm28.7-15.08,27.12-14.24,27.12,17.09-27.12,14.24ZM623.32,335l27.11-14.24,27.12,17.08-27.12,14.24Zm54.23-30.31-27.12,14.24-27.11-17.08,27.11-14.24Zm-28.71-18.08-27.11,14.24-27.11-17.08,27.11-14.24Zm-28.7-18.08L593,282.75l-27.12-17.09L593,251.42Zm-28.7-18.08-27.11,14.23-27.12-17.08,27.12-14.24Zm-28.7-18.09-27.12,14.24L508.51,229.5l27.11-14.24ZM534,214.26,506.92,228.5,479.8,211.42l27.12-14.24Zm-28.71-18.08-27.11,14.24L451.1,193.34l27.12-14.24Zm-28.7-18.08-27.11,14.24L422.4,175.26,449.52,161ZM447.93,160l-27.12,14.24L393.7,157.17l27.11-14.24Zm-28.7-18.08-27.12,14.23L365,139.09l27.12-14.24Zm-28.71-18.09-27.11,14.24L336.29,121l27.12-14.24ZM334.71,88.69l27.11,17.08L334.71,120l-27.12-17.08ZM306,103.77l27.11,17.08L306,135.09,278.89,118ZM277.3,118.84l27.12,17.08L277.3,150.16l-27.11-17.08Zm-28.7,15.07L275.72,151,248.6,165.23l-27.11-17.08ZM219.9,149,247,166.07,219.9,180.3l-27.12-17.08Zm-28.7,15.08,27.11,17.08L191.2,195.38,164.08,178.3Zm-28.7,15.07,27.11,17.08-27.12,14.24-27.11-17.08ZM133.79,194.2l27.12,17.08-27.12,14.24-27.11-17.08Zm-28.7,15.08,27.12,17.08L105.09,240.6,78,223.52Zm-28.7,15.07,27.11,17.08L76.39,255.67,49.27,238.59ZM47.68,239.42,74.8,256.5,47.68,270.74,20.57,253.66ZM19,254.5,46.1,271.58,19,285.82-8.13,268.73Zm-28.7,15.07L17.4,286.65-9.72,300.89l-27.12-17.08Zm-55.82,29.31,27.12-14.24,27.11,17.08L-38.42,316ZM-36.84,317l27.12-14.24L17.39,319.8-9.72,334ZM-8.13,335,19,320.8,46.1,337.89,19,352.13Zm28.7,18.09,27.11-14.24L74.8,356,47.68,370.21Zm28.7,18.08L76.39,357l27.11,17.08L76.39,388.29ZM78,389.29l27.12-14.24,27.11,17.08-27.11,14.24Zm28.71,18.08,27.11-14.24,27.12,17.08-27.12,14.24Zm28.7,18.08,27.11-14.24,27.12,17.08-27.12,14.24Zm28.7,18.08,27.11-14.24,27.12,17.09-27.12,14.23Zm28.7,18.08,27.12-14.24L247,464.46,219.9,478.7Zm28.71,18.09,27.11-14.24,27.11,17.08L248.6,496.78Zm28.7,18.08,27.11-14.24,27.12,17.08L277.3,514.86Zm28.7,18.08L306,501.62l27.12,17.08L306,532.94ZM334.71,551l-27.12-17.08,27.12-14.24,27.11,17.08ZM363.41,536l-27.12-17.08,27.12-14.24,27.12,17.08Zm28.7-15.07L365,503.79l27.11-14.24,27.12,17.09Zm28.7-15.08L393.7,488.72l27.11-14.24,27.12,17.08Zm28.71-15.07L422.4,473.65l27.12-14.24,27.11,17.08Zm28.7-15.07-27.11-17.08,27.11-14.24,27.12,17.08Zm28.7-15.08L479.81,443.5l27.11-14.24L534,446.34Zm28.7-15.07-27.11-17.08,27.11-14.24,27.12,17.08Zm28.71-15.07-27.12-17.08,27.12-14.24,27.11,17.08ZM593,415.36l-27.12-17.08L593,384l27.11,17.09Zm28.7-15.07-27.12-17.08L621.73,369l27.11,17.08Zm28.7-15.07-27.11-17.08,27.11-14.24L677.55,371Zm28.71-15.07L652,353.06l27.12-14.24,27.11,17.09Zm28.7-15.08L680.72,338l27.12-14.24L735,340.83Z"/></g><path class="cls-5" d="M525,202.94,245.67,26.57a5.17,5.17,0,0,0-5.17-.24h0l-.07,0,0,0-6.06,3.15,3.4,2.8V234a25.58,25.58,0,0,0,11.94,21.57L527.62,431l.85,4.07,5.23-2.74a5,5,0,0,0,.86-.45l.06,0h0a5,5,0,0,0,2.29-4.26V224.51A25.53,25.53,0,0,0,525,202.94Z"/><path class="cls-6" d="M531.16,227.48V430.57a5.13,5.13,0,0,1-7.91,4.3L243.93,258.52A25.58,25.58,0,0,1,232,237V33.84a5.13,5.13,0,0,1,7.92-4.29L519.24,205.92A25.55,25.55,0,0,1,531.16,227.48Z"/><path class="cls-7" d="M531.16,227.48v3.24L232,41.8v-8a5.13,5.13,0,0,1,7.92-4.29L519.24,205.92A25.55,25.55,0,0,1,531.16,227.48Z"/><path class="cls-8" d="M489.75,195.71c0,2.17-1.76,2.81-3.94,1.43s-3.93-4.28-3.93-6.45,1.76-2.81,3.93-1.42S489.75,193.54,489.75,195.71Z"/><path class="cls-9" d="M504.32,205c0,2.17-1.76,2.81-3.93,1.42s-3.94-4.27-3.94-6.44,1.76-2.81,3.94-1.43S504.32,202.84,504.32,205Z"/><path class="cls-10" d="M518.89,214.31c0,2.17-1.76,2.81-3.93,1.42s-3.93-4.27-3.93-6.45,1.76-2.81,3.93-1.42S518.89,212.13,518.89,214.31Z"/><path class="cls-11" d="M385,214.89v53.35a1.08,1.08,0,0,1-1.66.91L324.56,232a5.37,5.37,0,0,1-2.51-4.53V174.14a1.08,1.08,0,0,1,1.67-.9l58.78,37.11A5.38,5.38,0,0,1,385,214.89Z"/><path class="cls-12" d="M385,179.5v18.11a1.07,1.07,0,0,1-1.66.9L324.56,161.4a5.38,5.38,0,0,1-2.51-4.54V138.75a1.08,1.08,0,0,1,1.67-.9L382.5,175A5.38,5.38,0,0,1,385,179.5Z"/><path class="cls-13" d="M364.86,226.43l-7.89-5v-7.89a3.1,3.1,0,0,0-1.39-2.27l-4.09-2.59c-.77-.49-1.39-.26-1.39.51v7.89l-7.89-5c-.77-.49-1.39-.26-1.39.51v4.08a3.07,3.07,0,0,0,1.39,2.27l7.89,5v7.9a3.1,3.1,0,0,0,1.39,2.27l4.09,2.59c.76.48,1.39.25,1.39-.51V228.3l7.89,5c.76.48,1.39.25,1.39-.51V228.7A3.12,3.12,0,0,0,364.86,226.43Z"/><path class="cls-12" d="M311.74,125.51l-53.83-33.9a2.83,2.83,0,0,0-2.93-.42v0l-3.15,1.63,3.72,3v44.8c0,2.08,1.69,4.84,3.77,6.15l51.61,32.5.33,4.33,3.26-1.69h0a1.94,1.94,0,0,0,1-1.92V131.66C315.51,129.58,313.82,126.82,311.74,125.51Z"/><path class="cls-14" d="M312.28,133.33v48.29c0,2.08-1.69,2.71-3.77,1.4l-53.83-33.9c-2.08-1.31-3.77-4.07-3.77-6.15V94.68c0-2.08,1.69-2.7,3.77-1.39l53.83,33.89C310.59,128.5,312.28,131.25,312.28,133.33Z"/><path class="cls-15" d="M286.73,169.3l-32.05-20.18c-2.08-1.31-3.77-4.07-3.77-6.15V117.49l6.68-7.37c1.24-1.36,4.33.59,5.57,3.51l18.59,43.91Z"/><path class="cls-16" d="M312.28,178.23v3.39c0,2.08-1.69,2.71-3.77,1.4l-31.74-20,5-5.49,12.06-13.29c1.24-1.37,4.33.58,5.57,3.5Z"/><path class="cls-17" d="M304.23,136.25c0,4.42-3.58,5.74-8,3s-8-8.61-8-13,3.58-5.74,8-3S304.23,131.84,304.23,136.25Z"/><path class="cls-18" d="M194.1,175.9v19.74a2.9,2.9,0,0,1-4.44,2.45l-25.22-15.9a7.94,7.94,0,0,1-3.71-6.73V161.77s1.31-5.92,4.76-4.47c3.79,1.59,3.38,13.72,5.62,15.1s4-17.94,9.5-15c6.56,3.47,1.54,26.55,5.89,28C190.7,186.68,189.74,176.23,194.1,175.9Z"/><path class="cls-19" d="M182.05,151c0,.66-.54.85-1.2.43a2.68,2.68,0,0,1-1.2-2c0-.66.54-.85,1.2-.43A2.68,2.68,0,0,1,182.05,151Z"/><path class="cls-20" d="M186.5,153.8c0,.67-.54.86-1.2.44a2.69,2.69,0,0,1-1.2-2c0-.66.53-.86,1.2-.43A2.68,2.68,0,0,1,186.5,153.8Z"/><path class="cls-21" d="M190.94,156.64c0,.66-.53.86-1.2.43a2.68,2.68,0,0,1-1.2-2c0-.67.54-.86,1.2-.44A2.69,2.69,0,0,1,190.94,156.64Z"/><path class="cls-22" d="M220.43,319.44a2.11,2.11,0,0,0,2-1.6l39.14-158.31a2.11,2.11,0,1,0-4.09-1L218.38,316.83a2.11,2.11,0,0,0,1.54,2.55A2.22,2.22,0,0,0,220.43,319.44Z"/><path class="cls-23" d="M287.16,207.63a1.58,1.58,0,0,0,1.36-.78,1.57,1.57,0,0,0-.55-2.16l-33.33-19.76a1.58,1.58,0,1,0-1.61,2.72l33.32,19.76A1.59,1.59,0,0,0,287.16,207.63Z"/><path class="cls-23" d="M281.81,229.19a1.56,1.56,0,0,0,1.36-.77,1.58,1.58,0,0,0-.55-2.17L249.3,206.5a1.58,1.58,0,1,0-1.61,2.72L281,229A1.56,1.56,0,0,0,281.81,229.19Z"/><path class="cls-23" d="M276.46,250.76a1.6,1.6,0,0,0,1.37-.78,1.58,1.58,0,0,0-.56-2.16L244,228.07a1.58,1.58,0,1,0-1.61,2.72l33.31,19.75A1.56,1.56,0,0,0,276.46,250.76Z"/><path class="cls-23" d="M271.12,272.32a1.58,1.58,0,0,0,.8-2.94l-33.3-19.74a1.58,1.58,0,1,0-1.62,2.72l33.31,19.74A1.57,1.57,0,0,0,271.12,272.32Z"/><path class="cls-23" d="M265.77,293.89a1.58,1.58,0,0,0,.81-2.94l-33.31-19.74a1.58,1.58,0,0,0-1.61,2.72L265,293.67A1.62,1.62,0,0,0,265.77,293.89Z"/><path class="cls-23" d="M260.42,315.46a1.59,1.59,0,0,0,.81-2.95l-33.3-19.73a1.58,1.58,0,0,0-1.61,2.72l33.3,19.73A1.57,1.57,0,0,0,260.42,315.46Z"/><path class="cls-24" d="M249.86,251.55a2.35,2.35,0,0,0-2.42,1s-3.4-1.8-5.86-.94a5,5,0,0,0-2.84,3.83c-.16,1.06-.23,1.69-.27,2a.45.45,0,0,0,.07.3,2.84,2.84,0,0,0,1.62,1.3,6.39,6.39,0,0,0,3.41.26,7.59,7.59,0,0,0,1.84-.67,1.38,1.38,0,0,1,.67-.66,8.36,8.36,0,0,1,2.17-.27c4.15-.24,5.06-2,5.46-2.6C254.81,253.48,254.3,249.82,249.86,251.55Z"/><path class="cls-14" d="M248.06,250.66s3.56-.06,4.34.1c3.59.75,1.58,6.45-4.25,6.47-2.91,0-3.07,1.15-5.5,1.23a5.35,5.35,0,0,1-3-.7,2.49,2.49,0,0,1-.88-2.93c.32-1.76,1-3.3,2.78-3.76A25.74,25.74,0,0,1,248.06,250.66Z"/><path class="cls-25" d="M242.74,245.09s-1.23,4.1-1.61,5c-.23.52-.67,1.61-.88,2s.34,1.8,2.9,2,3.61-1.15,3.61-1.26c.07-1.65,1.4-4.67,2-6"/><path class="cls-26" d="M257.62,227c-1.54,3.18-9.7,23.18-9.7,23.18-.2.28-.85,1.72-3.75,1.9-3.36.2-4-1.93-4-1.93,0-2.11,4.84-27.38,6.51-31,.45-1,2-4.3,3.28-6.54l11.16,4.78C259.91,220.91,258,226.31,257.62,227Z"/><path class="cls-27" d="M241.47,196.67s-1.84,3.1-2.87,10.66a15.93,15.93,0,0,0,2.34,9.77c2.22,3.37,7.95,6.19,7.95,6.19l9.85,6.14s3.69.15,7-5.48-.62-15.72-.62-15.72Z"/><path class="cls-28" d="M250.25,212.64a10.55,10.55,0,0,0-.64,7.45,29.52,29.52,0,0,0,1.79,4.77l2.29,1.49.54-2.44Z"/><path class="cls-24" d="M256.76,281.94a13.45,13.45,0,0,1-3.14-.43s-3.59-1.46-5.93-.32-2.46,3.1-2.44,4.59c0,.52,0,1.36,0,1.55a.77.77,0,0,0,.15.33,2.72,2.72,0,0,0,1.69,1,6.35,6.35,0,0,0,3.4-.05,7.44,7.44,0,0,0,1.77-.85s.46-.7.7-.79a6.89,6.89,0,0,1,2-.37c4.85-.34,5.93-1.95,6.34-2.79C262,282.3,261,279.75,256.76,281.94Z"/><path class="cls-14" d="M253.52,279.86l5.54.3c2.05.13,2.86,1.85,2.12,3.19-.5.91-1.53,2.36-6.37,2.69-2.16.22-3.08,1.36-5.34,1.81a5.12,5.12,0,0,1-3.09-.38,2.67,2.67,0,0,1-1.18-2.83c.13-1.78.68-3.38,2.37-4A17.6,17.6,0,0,1,253.52,279.86Z"/><path class="cls-25" d="M248.33,277a34.88,34.88,0,0,1-.85,3.58c-.21.37-.58.62-.69,1-.17.6,1.29,1.68,2.85,1.9,3,.43,4.07-.65,4.28-1.06a40.91,40.91,0,0,1,1.3-4.72"/><path class="cls-29" d="M271.13,218.47c-.07-1.55-1.1-9.52-1.1-9.52l-17-5.11s-3.67,5.54-3.42,11.81c.13,3.48,3.56,10.93,3.56,10.93,1,5.37,2.52,19.5,2.52,19.61-1,2.22-3.89,11.93-4.31,13.52-1.1,4.22-3.9,19.16-3.9,19.16s-.39,2,3,2.48c4,.6,5.27-1.81,5.27-1.81s11.19-29.18,11.75-31.79a93.06,93.06,0,0,0,2.88-12.37A74.14,74.14,0,0,0,271.13,218.47Z"/><path class="cls-25" d="M268.47,154.32a15.42,15.42,0,0,1-3.16.75h-.12a.51.51,0,0,0-.17,0,3.59,3.59,0,0,0-.56.12.75.75,0,0,0-.47.32,27.5,27.5,0,0,0-.68,4.65l-1.2-.62-7.26-3.74s.41-2,.58-4,1.49-12,4.25-13.37,10.86.56,11.53,1.65c0,0-.08,1.77-.25,4.71S270,153.59,268.47,154.32Z"/><path class="cls-30" d="M259,133c-2.39,1-2.39,2.18-3,2.68-3.34,1.17-3.27,4.93-3,7.27A25.77,25.77,0,0,0,254.6,149c.27,1-.14,2,.07,2.58.28.83,1.51,1.6,2.24,2,.92.46,2.46.65,2.89.05.67-1,1.14-3.81,1.27-5.22.1-1.08.59-1.6,1.3-1.53s.7,1.08.78,2a.83.83,0,0,0,1.2.76,19.91,19.91,0,0,0,.73-2.62c.24-.66,2.41-1.8,2.66-3.82.2-1.64,1.08-1.37,2.82-2,3.09-1,3.05-3.67,1.67-5.69a7,7,0,0,0-4-2.54C265.23,132.41,261.53,131.94,259,133Z"/><path class="cls-13" d="M270,192.25v0h0a40.86,40.86,0,0,0-.5,10.44,50.07,50.07,0,0,0,1.29,7.6c.25,1-2.52,4-5.35,4.84-9.67,2.85-22.79-8.07-25.36-12-2.16-3.38,1-8.53,2.21-11.23,2.19-4.71,2.6-8.45.16-14.61-3-7.59-3.39-17.56,1.45-21.08a7.08,7.08,0,0,1,8.25-.56l1.83.9.81-1.21a42.83,42.83,0,0,1,10.5,6.29l-.15,1.06.33.25c3.63,2.39,6.61,4.84,8.35,7.65l-2.3,13-.87,5Z"/><path class="cls-31" d="M271.53,183.63l-.87,5a46.46,46.46,0,0,1-5.5-6.51Z"/><path class="cls-32" d="M265.25,162l-.11.74s-5.38-3.31-8.37-4.78A45,45,0,0,1,265.25,162Z"/><path class="cls-33" d="M270,192.27h0Z"/><path class="cls-22" d="M254.51,339.87a2.09,2.09,0,0,0,2-1.6L295.7,180a2.11,2.11,0,1,0-4.1-1L252.46,337.26a2.11,2.11,0,0,0,1.54,2.55A1.78,1.78,0,0,0,254.51,339.87Z"/><path class="cls-25" d="M316.55,171.34a1.71,1.71,0,0,0-.31.26,1,1,0,0,0-1.14.46,9.55,9.55,0,0,1-2.67,2.4c-.63.16-1.13.26-1.13.26l.38-.82a11.09,11.09,0,0,1,.77-1.31c.49-.74.3-1.35-.12-1.32a7.34,7.34,0,0,0-2.53,1.89c-.59.61-1.27,1.31-1.76,1.89-.22.27-.9,2.1-2,2.65a32.84,32.84,0,0,1-4.93,1.71c-6.58,1.9-12.38,3.38-12.38,3.38l-5.59-3.87-8.73,7.37s8.78,7.53,12.76,6.65c2.88-.64,17.89-9.23,17.89-9.23s3.9-2.1,4.36-2.25c.76-.24,1.86-.36,2.74-.7a6.17,6.17,0,0,0,2.62-2.14c.33-.48,1.52-3.05,2-4.16s.29-1.25,0-1.31c.21-.42.29-.58.42-.87C317.75,171.17,317,171,316.55,171.34Z"/><path class="cls-13" d="M271.42,167.61c3.2,2.6,12,11.26,12,11.26a6.88,6.88,0,0,1,.26,5.43c-1.43,3.82-5.07,5.73-7.07,5.26-2.49-.6-6.6-3.66-8.77-5.1-3.26-2.16-8.72-8.41-4.51-15.45C265.66,165.18,269.83,166.32,271.42,167.61Z"/><path class="cls-34" d="M547.25,265.35,561,274a2.57,2.57,0,0,1,1.1,1.69v13.44l-13.77-8.6a2.52,2.52,0,0,1-1.1-1.69V265.35m-.41-1.41c-.47,0-.79.33-.79.92v13.93a3.67,3.67,0,0,0,1.66,2.7l13.93,8.7a1.68,1.68,0,0,0,.88.3c.47,0,.78-.32.78-.92V275.64a3.64,3.64,0,0,0-1.66-2.69l-13.93-8.71a1.71,1.71,0,0,0-.87-.3Z"/><path class="cls-35" d="M588.84,292.38l-20.31-12.69a2.7,2.7,0,0,1-1.22-2h0c0-.67.55-.88,1.22-.46l20.31,12.69a2.7,2.7,0,0,1,1.22,2h0C590.06,292.59,589.51,292.8,588.84,292.38Z"/><path class="cls-36" d="M588.84,297.31l-20.31-12.68a2.7,2.7,0,0,1-1.22-2h0c0-.68.55-.88,1.22-.46l20.31,12.69a2.68,2.68,0,0,1,1.22,2h0C590.06,297.53,589.51,297.74,588.84,297.31Z"/><path class="cls-37" d="M588.84,302.25l-20.31-12.69a2.7,2.7,0,0,1-1.22-2h0c0-.67.55-.88,1.22-.46l20.31,12.69a2.7,2.7,0,0,1,1.22,2h0C590.06,302.47,589.51,302.67,588.84,302.25Z"/><path class="cls-38" d="M577.24,299.94l-8.71-5.44a2.7,2.7,0,0,1-1.22-2h0c0-.68.55-.88,1.22-.46l8.71,5.44a2.67,2.67,0,0,1,1.22,2h0C578.46,300.16,577.92,300.36,577.24,299.94Z"/><path class="cls-39" d="M555.87,308.52l3.85-1.44c.37-.14.37-.74,0-1.34s-1-1-1.34-.84l-3.85,1.44-3.84-6.24c-.37-.6-1-1-1.34-.84s-.37.74,0,1.34l3.84,6.25-3.84,1.44c-.37.14-.37.74,0,1.34s1,1,1.34.84l3.84-1.44,3.85,6.25c.37.6,1,1,1.34.83s.37-.74,0-1.34Z"/><path class="cls-40" d="M547.25,296.16l13.76,8.6a2.57,2.57,0,0,1,1.1,1.69v13.44l-13.77-8.6a2.52,2.52,0,0,1-1.1-1.69V296.16m-.41-1.41c-.47,0-.79.33-.79.92V309.6a3.67,3.67,0,0,0,1.66,2.7l13.93,8.7a1.68,1.68,0,0,0,.88.3c.47,0,.78-.32.78-.92V306.45a3.64,3.64,0,0,0-1.66-2.69l-13.93-8.71a1.71,1.71,0,0,0-.87-.3Z"/><path class="cls-41" d="M588.84,323.19,568.53,310.5a2.7,2.7,0,0,1-1.22-2h0c0-.67.55-.88,1.22-.46l20.31,12.69a2.7,2.7,0,0,1,1.22,2h0C590.06,323.4,589.51,323.61,588.84,323.19Z"/><path class="cls-42" d="M588.84,328.12l-20.31-12.68a2.7,2.7,0,0,1-1.22-2h0c0-.68.55-.88,1.22-.46l20.31,12.69a2.68,2.68,0,0,1,1.22,2h0C590.06,328.34,589.51,328.55,588.84,328.12Z"/><path class="cls-43" d="M588.84,333.06l-20.31-12.69a2.7,2.7,0,0,1-1.22-2h0c0-.67.55-.88,1.22-.46l20.31,12.69a2.7,2.7,0,0,1,1.22,2h0C590.06,333.28,589.51,333.48,588.84,333.06Z"/><path class="cls-44" d="M577.24,330.75l-8.71-5.44a2.7,2.7,0,0,1-1.22-2h0c0-.68.55-.88,1.22-.46l8.71,5.44a2.67,2.67,0,0,1,1.22,2h0C578.46,331,577.92,331.17,577.24,330.75Z"/><path class="cls-45" d="M547.25,327,561,335.58a2.53,2.53,0,0,1,1.1,1.68V350.7l-13.77-8.6a2.52,2.52,0,0,1-1.1-1.69V327m-.41-1.41c-.47,0-.79.33-.79.92v13.93a3.67,3.67,0,0,0,1.66,2.7l13.93,8.7a1.68,1.68,0,0,0,.88.3c.47,0,.78-.32.78-.92V337.26a3.64,3.64,0,0,0-1.66-2.69l-13.93-8.71a1.71,1.71,0,0,0-.87-.3Z"/><path class="cls-46" d="M588.84,354l-20.31-12.69a2.7,2.7,0,0,1-1.22-2h0c0-.67.55-.88,1.22-.46l20.31,12.69a2.7,2.7,0,0,1,1.22,2h0C590.06,354.21,589.51,354.42,588.84,354Z"/><path class="cls-47" d="M588.84,358.93l-20.31-12.68a2.7,2.7,0,0,1-1.22-2h0c0-.68.55-.88,1.22-.46l20.31,12.69a2.68,2.68,0,0,1,1.22,2h0C590.06,359.15,589.51,359.36,588.84,358.93Z"/><path class="cls-48" d="M588.84,363.87l-20.31-12.69a2.68,2.68,0,0,1-1.22-2h0c0-.67.55-.88,1.22-.46l20.31,12.69a2.7,2.7,0,0,1,1.22,2h0C590.06,364.09,589.51,364.29,588.84,363.87Z"/><path class="cls-49" d="M577.24,361.56l-8.71-5.44a2.7,2.7,0,0,1-1.22-2h0c0-.68.55-.88,1.22-.46l8.71,5.44a2.67,2.67,0,0,1,1.22,2h0C578.46,361.78,577.92,362,577.24,361.56Z"/><path class="cls-50" d="M506.85,246.28v93.59a1.9,1.9,0,0,1-2.92,1.59L400.81,276.35a9.44,9.44,0,0,1-4.41-8V174.8a1.9,1.9,0,0,1,2.93-1.59l103.12,65.11A9.45,9.45,0,0,1,506.85,246.28Z"/><path class="cls-51" d="M483.46,257l-1.74-1.09a3,3,0,0,1-1.22-1.76,48,48,0,0,0-3.26-10c-.32-.7-.26-1.31.16-1.46l1.22-.45c.56-.21.56-1.13,0-2.05l-5-8.21c-.56-.92-1.48-1.5-2-1.29l-1.22.45c-.42.16-1.06-.19-1.57-.82a61.73,61.73,0,0,0-7.9-8.24,2.74,2.74,0,0,1-1-1.85V218.5a3.18,3.18,0,0,0-1.45-2.35l-7.12-4.49a1.08,1.08,0,0,0-1.08-.17v0l-4.08,2.15a20.27,20.27,0,0,0-5.17-.81,2.2,2.2,0,0,1-1.57-1.15l-1.22-2c-.56-.92-1.47-1.5-2-1.29l-5,1.87L423.87,214s3.29,2.14,3.56,2.36,2.21,1,2.8,1.25a1.66,1.66,0,0,0,.85,0,13.78,13.78,0,0,0-1.87,4.14c-.14.49-.64.6-1.23.22l-1.73-1.09a1.06,1.06,0,0,0-1.13-.14v0l-7.07,3.72s2.3,2.93,2.51,3.15a5,5,0,0,0,1.7.3A28.07,28.07,0,0,0,424.8,226v2.56a3.22,3.22,0,0,0,1.45,2.36L428,232a3,3,0,0,1,1.23,1.76,48.43,48.43,0,0,0,3.26,10c.31.69.25,1.3-.17,1.46l-1.22.45-7.21,3.79,5,2.63,1.85-5.35a2.87,2.87,0,0,0,.37,1l5,8.22c.57.92,1.48,1.49,2,1.28l1.23-.45c.42-.15,1.06.19,1.56.82a63,63,0,0,0,7.9,8.24,2.7,2.7,0,0,1,1,1.84v1.74a3.2,3.2,0,0,0,1.45,2.36l4.69,2.95h0c-.24-.15-4,1.46-4,1.46l-.17,1.34.44,2.73,7.25-3.81h0a.74.74,0,0,0,.38-.72V274c0-.59.41-.83,1-.6a24,24,0,0,0,5.91,1.58,2.44,2.44,0,0,0-.36.7c0,.26,1.1,3.5,1.1,3.5l3.91,2.29,7.21-3.79c.56-.21.56-1.12,0-2l-1.22-2c-.42-.68-.48-1.37-.17-1.67a11,11,0,0,0,1.36-1.66l5.91-3.11h0a.74.74,0,0,0,.4-.74v-7.13A3.22,3.22,0,0,0,483.46,257Zm-26.92,3.29c-9.22-4.82-17-16.92-17-25.94,0-8.45,6.85-11,15.31-5.67,9.06,5.7,16.27,18.12,15.21,26.7C469.25,261.85,463.56,263.92,456.54,260.25Z"/><path class="cls-14" d="M419,234.73l1.74,1.1a2.92,2.92,0,0,1,1.22,1.76,47.61,47.61,0,0,0,3.27,9.95c.31.7.25,1.31-.17,1.47l-1.22.45c-.56.21-.56,1.12,0,2l5,8.21c.56.92,1.48,1.5,2,1.29l1.23-.45c.41-.16,1.06.19,1.56.82a61.64,61.64,0,0,0,7.9,8.23,2.78,2.78,0,0,1,1,1.85v1.74a3.24,3.24,0,0,0,1.44,2.36L451.2,280c.8.51,1.45.27,1.45-.53v-1.74c0-.59.41-.83,1-.6a22,22,0,0,0,7.9,1.71A2.21,2.21,0,0,1,463.1,280l1.22,2c.57.92,1.48,1.49,2.05,1.28l5-1.86c.56-.21.56-1.13,0-2.05l-1.22-2c-.42-.68-.48-1.36-.17-1.66a12.8,12.8,0,0,0,3.27-5.85c.13-.49.63-.59,1.22-.22l1.73,1.09c.8.51,1.45.27,1.45-.53V263.1a3.18,3.18,0,0,0-1.45-2.35l-1.73-1.1a2.92,2.92,0,0,1-1.22-1.76,47.88,47.88,0,0,0-3.27-10c-.31-.69-.25-1.3.17-1.46l1.22-.45c.56-.21.56-1.12,0-2l-5-8.21c-.57-.92-1.48-1.5-2.05-1.29l-1.21.45c-.42.16-1.07-.19-1.57-.82a61.13,61.13,0,0,0-7.9-8.24,2.74,2.74,0,0,1-1-1.85v-1.73a3.22,3.22,0,0,0-1.45-2.36l-7.13-4.48c-.79-.51-1.44-.27-1.44.53v1.73c0,.59-.42.83-1,.6a22.06,22.06,0,0,0-7.9-1.71,2.2,2.2,0,0,1-1.57-1.15l-1.22-2c-.56-.92-1.48-1.49-2-1.28l-5,1.86c-.56.21-.56,1.13,0,2.05l1.22,2c.42.68.48,1.36.17,1.66a12.71,12.71,0,0,0-3.27,5.85c-.13.49-.63.59-1.22.22L419,224.72c-.8-.51-1.44-.27-1.44.53v7.13A3.17,3.17,0,0,0,419,234.73Zm13.3,3.37c0-8.45,6.85-11,15.31-5.67,9.06,5.7,16.27,18.11,15.2,26.7-.8,6.5-6.49,8.57-13.51,4.9C440.11,259.21,432.33,247.11,432.33,238.1Z"/><path class="cls-52" d="M491.38,311.27,411.88,261a3.32,3.32,0,0,1-1.5-2.45c0-.83.67-1.07,1.5-.55l79.5,50.23a3.35,3.35,0,0,1,1.5,2.45C492.88,311.55,492.2,311.79,491.38,311.27Z"/><path class="cls-53" d="M491.38,319l-79.5-50.23a3.34,3.34,0,0,1-1.5-2.45c0-.83.67-1.08,1.5-.55L491.38,316a3.35,3.35,0,0,1,1.5,2.45C492.88,319.26,492.2,319.51,491.38,319Z"/><path class="cls-54" d="M455.39,304.05l-43.51-27.58a3.3,3.3,0,0,1-1.5-2.44c0-.83.67-1.08,1.5-.56l43.51,27.58a3.35,3.35,0,0,1,1.5,2.45C456.89,304.33,456.21,304.57,455.39,304.05Z"/><path class="cls-55" d="M455.05,340.35v29.13a1.89,1.89,0,0,1-2.92,1.58L324.26,290.48a9.44,9.44,0,0,1-4.41-8V253.39a1.9,1.9,0,0,1,2.92-1.59l127.87,80.59A9.44,9.44,0,0,1,455.05,340.35Z"/><path class="cls-12" d="M448,353.89c0-.21-.07-.41-.11-.62s-.09-.53-.16-.8-.17-.58-.26-.87-.1-.36-.16-.54c-.13-.36-.28-.71-.43-1.07-.05-.1-.09-.21-.14-.32q-.27-.62-.6-1.2c0-.05-.05-.1-.08-.14a14.79,14.79,0,0,0-.77-1.27v0a17.51,17.51,0,0,0-1.89-2.35l1.33-.67h0a2.14,2.14,0,0,0,.57-.43l.08-.1a3.49,3.49,0,0,0,.33-.49,1.47,1.47,0,0,0,.1-.22,3.29,3.29,0,0,0,.19-.58,1.83,1.83,0,0,0,.06-.25,5.78,5.78,0,0,0,.1-1,7.56,7.56,0,0,0-.13-1.32,4.85,4.85,0,0,0-.11-.49,7.63,7.63,0,0,0-.23-.88,5.62,5.62,0,0,0-.19-.53c-.11-.29-.22-.57-.35-.86l-.24-.49c-.16-.31-.33-.6-.51-.9-.06-.08-.1-.17-.15-.25l-.12-.16c-.11-.18-.23-.34-.35-.5l-.39-.5c-.13-.15-.26-.31-.4-.45s-.31-.33-.47-.48-.24-.24-.37-.35a8.28,8.28,0,0,0-.9-.69,3.71,3.71,0,0,0-3.32-.66h0l-.05,0-.22.12-3.17,1.59,2,4,.29.59,0,.06,1.17,3.35-.05,0h0l-4.73,2.4,1,.6c.49.3,1,.6,1.06.62h.08l.57.09c0,.2,0,.4,0,.6v2.05l2.59,1.68,3.89,2.52-.12.52,2.6,6.7,3.32-1.68v-2.05A10.8,10.8,0,0,0,448,353.89Z"/><path class="cls-14" d="M437.94,333.81a11.75,11.75,0,0,1,4.9,8.85c0,2.43-1.34,3.63-3.22,3.22,3,2.82,5.19,7.36,5.18,11.08v2L431,350.05V348c0-3.72,2.23-5.4,5.23-4.34a11.73,11.73,0,0,1-3.19-7.38C433,333.16,435.22,332.05,437.94,333.81Z"/><path class="cls-12" d="M409,162.22,362.5,132.73a.78.78,0,0,0-.82,0h0l-1.92.79,1.88,1.71v35a1.76,1.76,0,0,0,.82,1.46l45.05,28.55.44,2.25,1.88-.79h0a.65.65,0,0,0,.45-.63V164.43A2.63,2.63,0,0,0,409,162.22Z"/><path class="cls-56" d="M408.33,165.25V201.9a.69.69,0,0,1-1.08.56l-47-29.81a1.73,1.73,0,0,1-.82-1.46v-37a.75.75,0,0,1,1.17-.61L407.09,163A2.67,2.67,0,0,1,408.33,165.25Z"/><line class="cls-57" x1="361.19" y1="139.38" x2="405.81" y2="167.63"/><path class="cls-14" d="M398.23,161.45l-1.91-1.21a1.09,1.09,0,0,1-.49-.8v-1.91c0-.27.22-.35.49-.18l1.91,1.21a1.09,1.09,0,0,1,.49.8v1.91C398.72,161.55,398.5,161.63,398.23,161.45Z"/><path class="cls-14" d="M401.77,163.7l-1.91-1.21a1.11,1.11,0,0,1-.49-.81v-1.91c0-.27.22-.35.49-.18l1.91,1.21a1.09,1.09,0,0,1,.49.8v1.92C402.26,163.79,402,163.87,401.77,163.7Z"/><path class="cls-14" d="M405.32,165.94l-1.92-1.21a1.09,1.09,0,0,1-.49-.8V162c0-.27.22-.35.49-.18l1.92,1.22a1.09,1.09,0,0,1,.49.8v1.91C405.81,166,405.59,166.11,405.32,165.94Z"/><path class="cls-14" d="M374.49,151.16v10a.63.63,0,0,1-1,.52l-11.71-7.39A1.62,1.62,0,0,1,361,153V142.57a.69.69,0,0,1,1.08-.56l11.23,7.1A2.45,2.45,0,0,1,374.49,151.16Z"/><path class="cls-14" d="M374.49,165v.63a.64.64,0,0,1-1,.53l-11.71-7.4a1.62,1.62,0,0,1-.75-1.36v-1a.69.69,0,0,1,1.08-.56l11.23,7.09A2.47,2.47,0,0,1,374.49,165Z"/><path class="cls-14" d="M374.49,169v.63a.63.63,0,0,1-1,.52l-11.71-7.39a1.62,1.62,0,0,1-.75-1.36v-1a.69.69,0,0,1,1.08-.56L373.34,167A2.47,2.47,0,0,1,374.49,169Z"/><path class="cls-14" d="M374.49,173.09v.63a.63.63,0,0,1-1,.52l-11.71-7.39a1.62,1.62,0,0,1-.75-1.36v-1a.68.68,0,0,1,1.08-.56L373.34,171A2.47,2.47,0,0,1,374.49,173.09Z"/><path class="cls-14" d="M374.49,177.15v.63a.63.63,0,0,1-1,.52l-11.71-7.39a1.62,1.62,0,0,1-.75-1.36v-1a.69.69,0,0,1,1.08-.57l11.23,7.1A2.47,2.47,0,0,1,374.49,177.15Z"/><path class="cls-58" d="M363.49,146.07V147l4.15,4.88,4.15.34v-.93a1,1,0,0,0-.47-.84l-7.32-4.6A.32.32,0,0,0,363.49,146.07Z"/><path class="cls-59" d="M367.64,152.55l-4.15-4.88v3.89a1.21,1.21,0,0,0,.56,1l7.17,4.51a.36.36,0,0,0,.57-.3v-3.89Z"/><path class="cls-14" d="M405.81,170.54v27.53a.42.42,0,0,1-.66.34l-28.7-18.18a1.07,1.07,0,0,1-.5-.89V151.57a.45.45,0,0,1,.71-.37l28.39,18A1.62,1.62,0,0,1,405.81,170.54Z"/><path class="cls-60" d="M378.71,157.51l24.18,15.32a.28.28,0,0,0,.45-.23v-1.46a.75.75,0,0,0-.34-.62L378.82,155.2a.29.29,0,0,0-.45.24v1.46A.73.73,0,0,0,378.71,157.51Z"/><path class="cls-61" d="M378.71,161.88l24.18,15.32a.28.28,0,0,0,.45-.23v-1.46a.75.75,0,0,0-.34-.62l-24.18-15.32a.29.29,0,0,0-.45.24v1.46A.73.73,0,0,0,378.71,161.88Z"/><path class="cls-62" d="M378.71,166.25l24.18,15.32a.28.28,0,0,0,.45-.23v-1.46a.75.75,0,0,0-.34-.62l-24.18-15.32a.29.29,0,0,0-.45.24v1.46A.73.73,0,0,0,378.71,166.25Z"/><path class="cls-63" d="M378.71,170.62l24.18,15.32a.28.28,0,0,0,.45-.23v-1.46a.75.75,0,0,0-.34-.62l-24.18-15.32a.29.29,0,0,0-.45.24V170A.73.73,0,0,0,378.71,170.62Z"/><path class="cls-64" d="M378.71,175l24.18,15.32a.28.28,0,0,0,.45-.23v-1.46A.75.75,0,0,0,403,188l-24.18-15.32a.29.29,0,0,0-.45.24v1.46A.73.73,0,0,0,378.71,175Z"/><path class="cls-65" d="M378.71,179.36l24.18,15.32a.28.28,0,0,0,.45-.23V193a.75.75,0,0,0-.34-.62l-24.18-15.32a.29.29,0,0,0-.45.24v1.46A.73.73,0,0,0,378.71,179.36Z"/><path class="cls-66" d="M355.48,86.29s-8.05.61-11,1.65c-4.05,1.41-5.68,5.93-3.8,8.62s17.11,2.06,17.11,2.06Z"/><path class="cls-13" d="M366.33,85c-5.07-.22-10.32.9-14.9,1.48-.71.08-2.86,5.18,1.27,13.2,5.15.24,12.43,1,12.43,1S370,85.19,366.33,85Z"/><path class="cls-13" d="M399.59,103.9c-.08.32-4.13,9.06-5.07,12.13-.39,1.24-.83,2.49-1.28,3.72l-30.53-19.28c-.74-9.45,1.87-15.58,3-15.5,11.9.89,23.79,6.58,28.87,12.19A33.89,33.89,0,0,1,399.59,103.9Z"/><path class="cls-67" d="M379.91,84.42l3.87,5.52a2.56,2.56,0,0,1-.54,3c-1.88,2.27-5.95,3.14-7.94,1.56-.87-.62-.5-2.63-1.72-4.41L378,86Z"/><path class="cls-66" d="M364,79.86a31.55,31.55,0,0,0,2.25,8.47c1.77,3.9,2.24,4.76,4,5.15s3.31.16,5.71-2.2a14.24,14.24,0,0,0,3.32-5.57s.45.18,1.21-1.15a6.1,6.1,0,0,0,.81-5.38,16.91,16.91,0,0,0-4.19-8c-2.49-2.72-8-.55-10.26,1.3S363.91,77.11,364,79.86Z"/><path class="cls-30" d="M380.38,71.35a4.21,4.21,0,0,0-3-1.1s-5.39-3.55-9.85-.08a15.59,15.59,0,0,0-4.71,5.91c-.71,1.49-2.93,7.41,1.67,8.75a12.29,12.29,0,0,0,6.29.14,5.28,5.28,0,0,0,2.54-2.37,4.63,4.63,0,0,0,2.08.57A4.21,4.21,0,0,1,377,84.61l.59-.6a10.53,10.53,0,0,1-.25-2.71,1.73,1.73,0,0,1,3-1c1.08,1.1.27,3.38-.1,4.61l.6.85a18,18,0,0,0,1.47-7.53C382.05,74.06,381.19,72.2,380.38,71.35Z"/><path class="cls-66" d="M363.44,123.24a4.06,4.06,0,0,0-.67-.49c.29.11.51.17.56.13.21-.16.07-.55-.08-.82A9.15,9.15,0,0,0,362,121c-.24-.25-.45-.47-.57-.58a7.42,7.42,0,0,1-1.23-2.25c.08-.12.52.57,1.39,1s1.5.23,1.38-.12a13.78,13.78,0,0,0-1.78-3c-.71-.79-2.56-1.37-3.31-1.85a2.36,2.36,0,0,1-.95-1.27c-1.1-2.69-2.8-6.84-4.45-10.79-2.22-5.33-2.14-6.87-3.45-8.83-3.78-5.64-6.57-4.31-6.57-4.31a7.54,7.54,0,0,0-2.6,8c.6,2.22,1.95,4.29,4.17,7.5a125.64,125.64,0,0,0,9.6,11.89c1.19,1.45,1.63,4.2,2.13,5.1.27.49,3.05,3.23,4.82,3.22.17,0,.12-.3.06-.49a4.19,4.19,0,0,0,1.57.5c.38,0,.13-.63-.22-.94h0a5.24,5.24,0,0,0,1.52.55C363.74,124.13,363.79,123.82,363.44,123.24Z"/><path class="cls-66" d="M403.22,112.57l-10.81,4.69,3,8.69s-5.39,10.41-8.6,16.77h0s-3.89,2.09-4.67,2.45a5.16,5.16,0,0,0-2.09,2.5,18.69,18.69,0,0,0-.53,4.05h0a6.32,6.32,0,0,0,.09,1.89c.2.23.69.21,1-.34-.1.77-.14,1.69,0,1.8.54.35,1-.54,1-.55a.74.74,0,0,0,.1.3.92.92,0,0,0,1.34-.4c1.29.55,2.05-1.31,2.05-1.31a15.32,15.32,0,0,1,1.67-1.71c.76-.48,3.53-.77,4.32-4.48h0a13.6,13.6,0,0,1,2.69-3.74c4.53-4.61,11.27-11.25,12.63-17.51C406.94,121.74,403.22,112.57,403.22,112.57Z"/><path class="cls-13" d="M395.27,98.22a26.92,26.92,0,0,1,4.32,5.68,60.48,60.48,0,0,1,5.94,13.21s.86,4.93-13.17,6.63l-9.47-18Z"/><path class="cls-67" d="M351.13,98.6a28.42,28.42,0,0,0-2.5-4.85,16.85,16.85,0,0,1,3.29,4.83Z"/><polygon class="cls-68" points="365.13 100.72 387.66 114.81 388.79 116.94 362.71 100.47 365.13 100.72"/><path class="cls-69" d="M500.62,363l-31-19.51a2,2,0,0,0-2-.11h0l-2.85,1.47s1.07,1.61,1.14,1.85a.36.36,0,0,0,.14.13v27.21a4.47,4.47,0,0,0,2.09,3.74l32.24,20.26-.37.86,0,.49,2.87-1.48a1.72,1.72,0,0,0,.93-1.55V368.68A6.77,6.77,0,0,0,500.62,363Z"/><path class="cls-70" d="M501,370.12v27.69a1.76,1.76,0,0,1-2.76,1.45l-32.36-20.34a4.44,4.44,0,0,1-2.1-3.73V346.5a1.91,1.91,0,0,1,3-1.57l31.05,19.51A6.76,6.76,0,0,1,501,370.12Z"/><path class="cls-71" d="M478.41,361.28l9.09,13.39a.34.34,0,0,1-.19.52l-9.1,1.94a.36.36,0,0,1-.43-.35V361.44A.34.34,0,0,1,478.41,361.28Z"/><path class="cls-24" d="M329.87,408.83v.11a2.06,2.06,0,0,1-.45,1.33c-1.4,1.62-4.68,2.31-5.36,2.44l-.12,0c-1.85.29-3.93.4-4.83.5a12.2,12.2,0,0,0-1.81.31v.21a14.49,14.49,0,0,1-2.55.42h0a4.5,4.5,0,0,1-2.77-.61,2.72,2.72,0,0,1-.76-1.29v-.78l2.42-.17h0l1.2-.08,1.1-.07,1-.07Z"/><path class="cls-13" d="M319.38,405.22s2.23.38,3.91.53a45.71,45.71,0,0,1,5.17.65,2.16,2.16,0,0,1,1.42,2.34c-.27,2.25-5.34,3.63-8.55,3.89a47.79,47.79,0,0,0-4.9.46,7.52,7.52,0,0,1-4.05-.1c-1.66-.82-1.77-4.37-.76-6S319.38,405.22,319.38,405.22Z"/><path class="cls-25" d="M312.41,403.15s-.12,2.52-.15,3-.27.85-.2,1.26c.11.64,1.62,1.28,3.69,1.05a6.3,6.3,0,0,0,4.15-2c.38-.63-.2-.82-.29-1.09-.16-.42,0-4.17-.28-2.9"/><path class="cls-24" d="M305.32,391.87a3.85,3.85,0,0,1-.08,1.82,6,6,0,0,1-1.42,2.24,11.39,11.39,0,0,1-2.28,1.89,18.29,18.29,0,0,0-1.91,1.33,12.72,12.72,0,0,0-1.36,1.78v.38a6.14,6.14,0,0,1-1.9,1.49,4.76,4.76,0,0,1-3.5.19,2.45,2.45,0,0,1-1.63-2,10.83,10.83,0,0,1,0-1.29"/><path class="cls-13" d="M296.8,393.26a18.64,18.64,0,0,0,4.17-1.94c2.08-1.48,3.6-1.1,4.11-.22s.74,3.87-3.68,6.45a8.21,8.21,0,0,0-3,2.7,5.78,5.78,0,0,1-2.08,1.87,4.32,4.32,0,0,1-2.31.4c-3-.25-3.66-3.31-2.18-5.64S296.8,393.26,296.8,393.26Z"/><path class="cls-25" d="M292.21,394.61l-.12,2.28a1.57,1.57,0,0,0-.19,1c.14.62,1.9,1.81,4.29.55,2.69-1.42,2.4-3.52,2.41-3.64.15-.95-.39,0-.39-.81"/><path class="cls-72" d="M328.24,355.6c-.86,7.63-3.58,20.54-4.52,27S321,404.07,321,404.07s-1,1.53-4.47,2-4.92-1.63-4.92-1.63-1.15-20.78-.9-24.56,1.35-10.76,1.18-14.47c-.11-2.68-.08-9-1.39-14.63-.19.59-.39,1.13-.59,1.59-2,4.52-5.78,14.22-6.83,17.9S299.41,395,299.41,395a3.24,3.24,0,0,1-1.07,1.08,8.84,8.84,0,0,1-2.72,1.23c-3.15.88-4.24-.92-4.24-.92-.38-2.2-.09-26.42,1-30.53a95.43,95.43,0,0,0,2.58-14.51c.24-3.95.72-12.74.24-17.9a15.12,15.12,0,0,1,.38-5.1,13.44,13.44,0,0,1,1.48-3.78s30.21,1.65,31.22,6.24a36.75,36.75,0,0,1,.63,4.44A114.42,114.42,0,0,1,328.24,355.6Z"/><path class="cls-73" d="M310.45,350.78c-.19.6-.39,1.13-.59,1.6a69.34,69.34,0,0,0-3.55-6.61,17.1,17.1,0,0,1-2.88-8.73c1,4.5,5.24,8.18,5.24,8.18Z"/><path class="cls-25" d="M318.39,270.13a7.59,7.59,0,0,1-2.12.91l-.14,0-.16.05c-.14.05-.34.11-.57.21a.78.78,0,0,0-.44.41c-.28.71,0,5,0,5l-1.34-.47-8.15-2.8s.11-2.19,0-4.2-.27-12.75,2.4-14.59,10.35-.72,11.22.32c0,0,.25,1.63.78,4.69S319.91,269.13,318.39,270.13Z"/><path class="cls-30" d="M307.6,251a8.56,8.56,0,0,0-5.79,9.09c.21,3.09,1.92,5.27,2.36,6.28s.48,1.65.81,2.23,3.36,3.13,6.39,2.32c1.38-.37,2-2.4,2.13-3.27s.21-3.28.43-4,.95-1.48,1.5-1.38.87,1.06,1.09,2,.69.95.9.73.11-2.58.26-3.31,1.4-1.32,1.52-3.46a10.8,10.8,0,0,1,1.05-2.68c1.26-4.23-2.65-6.81-5.42-7.49C311.87,247.28,310,250.16,307.6,251Z"/><polygon class="cls-74" points="322.74 275.86 322.74 300.38 351.92 318.61 351.92 294.08 322.74 275.86"/><polygon class="cls-75" points="322.74 275.86 322.74 300.38 302.13 311.14 302.13 286.61 322.74 275.86"/><path class="cls-76" d="M349.15,288.92l-10.4,15.92a.74.74,0,0,1-1,.24L316.08,292a.77.77,0,0,1-.25-1.07l10.65-16.3a.76.76,0,0,1,1-.22l21.4,13.44A.76.76,0,0,1,349.15,288.92Z"/><path class="cls-77" d="M325.42,299.41l-7.28.38a.92.92,0,0,1-.95-.88l-1-23.86a.91.91,0,0,1,.86-.95l7.28-.39a.92.92,0,0,1,.95.88l1,23.87A.91.91,0,0,1,325.42,299.41Z"/><path class="cls-78" d="M340.48,310.26H328.82a.71.71,0,0,1-.72-.67l-.73-14.76a.71.71,0,0,1,.71-.75h11.66a.71.71,0,0,1,.71.68l.74,14.76A.71.71,0,0,1,340.48,310.26Z"/><polygon class="cls-79" points="351.91 294.08 351.91 318.6 331.31 329.36 331.31 304.84 351.91 294.08"/><polygon class="cls-80" points="302.13 286.61 302.13 311.13 331.31 329.36 331.31 304.84 302.13 286.61"/><path class="cls-81" d="M351.66,317.34a4.17,4.17,0,0,0-1.46-.47,12.21,12.21,0,0,1-3.05-.35,13.31,13.31,0,0,1-2.56-1.85h0c-2.57-2.51-6.57-6.37-9.16-8.56-.59-1.78-1.82-5.82-2.06-6.43a9.48,9.48,0,0,1-4.67,4.15c-3,1.09-4.65.11-4.85,0h0c.14.29.28.58.43.84.47.93,1.48,2.64,2.08,3.65a6.51,6.51,0,0,0,3.3,3.38s5.32,3.06,10,5.25a26.2,26.2,0,0,1,4.78,2.82c.94,1.06,2.05,2.33,2.52,2.34.8,0,1.22-.42,1.78-.41s1-.55,1.24-.62a2.23,2.23,0,0,0,.94-.54c.29-.29.28-1.6.28-1.6l-.71.37s-1-.63-1.06-.88a.3.3,0,0,1,.09-.37,14,14,0,0,1,1.5-.11C351.5,318,351.8,317.46,351.66,317.34Z"/><path class="cls-81" d="M333.65,300.34a15.37,15.37,0,0,1-3.86,3,9.94,9.94,0,0,0,3.59-3.65Z"/><path class="cls-13" d="M334.24,299.68s-.22.27-.59.66a14.83,14.83,0,0,1-3.87,3,3.46,3.46,0,0,1-.5.27l-.58.22a5.07,5.07,0,0,1-.75.25,5.88,5.88,0,0,1-3.55,0,1.45,1.45,0,0,1-.24-.1l-.19-.09-.06,0,0,0h0c.15.3.29.58.44.86.67,1.28,2.4,4.15,2.54,4.41h0a42.65,42.65,0,0,0,1.07,11A71.3,71.3,0,0,1,329.09,331v0c.22,3.55.33,9.35,0,7.73-.17-.74-1.74-5.69-2-5.69a9.5,9.5,0,0,0-.8,2.44,7.49,7.49,0,0,1-7.33,5.88,19.11,19.11,0,0,1-2.23-.07h0c-5.66-1.43-16.92-8.82-19.72-10.44a4,4,0,0,1-1.87-3.92h0c.08-.52.16-1,.21-1.34a.1.1,0,0,0,0,0c.09-.5.15-.81.15-.81A80.56,80.56,0,0,1,297.87,313c1.57-5.26,1.43-9.24-2-15.25-4.3-7.48-6.23-17.82-1.71-22.22a7.4,7.4,0,0,1,8.51-1.85l1.06-1.14a50,50,0,0,1,13.56,5.38V279l.4.19c5.15,2.42,9.27,5.07,11.3,8.78A81.79,81.79,0,0,1,334.24,299.68Z"/><path class="cls-82" d="M317.25,278.48V279s-6.11-2.62-9.46-3.71A70.68,70.68,0,0,1,317.25,278.48Z"/><path class="cls-83" d="M327.33,317a45.28,45.28,0,0,0-2.8-7.57c-2.06-4.66-4.12-8.52-5.78-13.23l3.79,6.79,1.31.86,0,0c.13.29.26.56.4.81.67,1.28,2.4,4.16,2.56,4.42h0v0A38.79,38.79,0,0,0,327.33,317Z"/><path class="cls-84" d="M178.89,77.2,165,68.47a1.44,1.44,0,0,0-1.52,0L160.61,70l1.45,1.17.68,0V82.75A5.06,5.06,0,0,0,165.1,87l12.23,7.7-.25,1.63.65.92,2.71-1.46.07,0,0,0h0a1.46,1.46,0,0,0,.71-1.25v-13A5.08,5.08,0,0,0,178.89,77.2Z"/><path class="cls-85" d="M176.18,97.27,162.3,88.53a5.06,5.06,0,0,1-2.36-4.28v-13A1.49,1.49,0,0,1,162.22,70l13.87,8.73A5.06,5.06,0,0,1,178.45,83V96A1.48,1.48,0,0,1,176.18,97.27Z"/><path class="cls-14" d="M227.7,108.64h0a.67.67,0,0,1-1,.57L186.07,83.65a1.65,1.65,0,0,1-.77-1.4h0a.66.66,0,0,1,1-.56l40.61,25.56A1.64,1.64,0,0,1,227.7,108.64Z"/><path class="cls-14" d="M225.72,114.08l-39.65-25a1.64,1.64,0,0,1-.77-1.39h0a.67.67,0,0,1,1-.56l39.65,25a1.65,1.65,0,0,1,.77,1.4h0A.67.67,0,0,1,225.72,114.08Z"/><path class="cls-14" d="M214.89,111.51h0a.67.67,0,0,1-1,.56L186.08,94.58a1.65,1.65,0,0,1-.77-1.4h0a.66.66,0,0,1,1-.56l27.79,17.5A1.66,1.66,0,0,1,214.89,111.51Z"/><path class="cls-14" d="M198.89,106.89h0a.66.66,0,0,1-1,.56L186.08,100a1.66,1.66,0,0,1-.77-1.4h0a.66.66,0,0,1,1-.56l11.79,7.42A1.63,1.63,0,0,1,198.89,106.89Z"/><path class="cls-14" d="M227.7,142.91h0a.67.67,0,0,1-1,.56l-43.4-27.32a1.64,1.64,0,0,1-.78-1.4v0a.67.67,0,0,1,1-.56l43.4,27.32A1.66,1.66,0,0,1,227.7,142.91Z"/><path class="cls-14" d="M222.92,146.58l-39.64-25a1.68,1.68,0,0,1-.77-1.41h0a.67.67,0,0,1,1-.56l39.64,25a1.65,1.65,0,0,1,.77,1.4h0A.67.67,0,0,1,222.92,146.58Z"/><path class="cls-14" d="M225.46,153.64l-42.18-26.56a1.65,1.65,0,0,1-.77-1.41h0a.67.67,0,0,1,1-.56l42.17,26.56a1.64,1.64,0,0,1,.78,1.4h0A.67.67,0,0,1,225.46,153.64Z"/><path class="cls-14" d="M211.9,150.56l-28.62-18a1.65,1.65,0,0,1-.77-1.4h0a.67.67,0,0,1,1-.56l28.61,18a1.66,1.66,0,0,1,.78,1.41h0A.67.67,0,0,1,211.9,150.56Z"/><path class="cls-85" d="M176.18,129.49l-13.88-8.73a5.06,5.06,0,0,1-2.36-4.28v-13a1.48,1.48,0,0,1,2.28-1.25l13.87,8.73a5.06,5.06,0,0,1,2.36,4.28v13A1.48,1.48,0,0,1,176.18,129.49Z"/><path class="cls-86" d="M190.66,151.84,165.44,136a3.4,3.4,0,0,0-5.21,2.88v36.63a8.38,8.38,0,0,0,3.94,7.15l25.22,15.9a3.43,3.43,0,0,0,1.81.53,3.5,3.5,0,0,0,1.65-.43,3.37,3.37,0,0,0,1.75-3V159A8.45,8.45,0,0,0,190.66,151.84Zm-28.19-15.11a2.28,2.28,0,0,1,1.15-.31,2.36,2.36,0,0,1,1.28.38l25.22,15.89A7.42,7.42,0,0,1,193.6,159v2.8l-32.37-20.4v-2.57A2.35,2.35,0,0,1,162.47,136.73Zm29.89,61a2.36,2.36,0,0,1-2.43-.07l-25.23-15.9a7.39,7.39,0,0,1-3.47-6.3V142.58L193.6,163v32.66A2.36,2.36,0,0,1,192.36,197.73Z"/><path class="cls-14" d="M227.7,175.86h0a.67.67,0,0,1-1,.56l-27-17a1.64,1.64,0,0,1-.77-1.39h0a.67.67,0,0,1,1-.57l27,17A1.65,1.65,0,0,1,227.7,175.86Z"/><path class="cls-14" d="M225.15,179.71h0a.66.66,0,0,1-1,.57l-24.44-15.4a1.66,1.66,0,0,1-.76-1.39h0a.66.66,0,0,1,1-.57l24.43,15.4A1.64,1.64,0,0,1,225.15,179.71Z"/><path class="cls-14" d="M227.7,186.76v0a.67.67,0,0,1-1,.56l-27-17a1.66,1.66,0,0,1-.77-1.4v0a.67.67,0,0,1,1-.56l27,17A1.66,1.66,0,0,1,227.7,186.76Z"/><path class="cls-14" d="M214.14,183.69h0a.67.67,0,0,1-1,.56l-13.42-8.44a1.65,1.65,0,0,1-.77-1.4h0a.66.66,0,0,1,1-.56l13.42,8.45A1.63,1.63,0,0,1,214.14,183.69Z"/><path class="cls-69" d="M442.8,122.68,424,110.86a1.21,1.21,0,0,0-1.2-.06h0l-2,1s.65,1,.7,1.12,0,.05.08.08v16.48a2.68,2.68,0,0,0,1.27,2.26l19.52,12.27-.23.52,0,.3,2-1a1.05,1.05,0,0,0,.56-.94V126.12A4.11,4.11,0,0,0,442.8,122.68Z"/><path class="cls-87" d="M442.74,127.13v16.78a1.06,1.06,0,0,1-1.66.87l-19.61-12.31a2.73,2.73,0,0,1-1.27-2.27V112.83a1.16,1.16,0,0,1,1.81-1l18.81,11.82A4.09,4.09,0,0,1,442.74,127.13Z"/><path class="cls-14" d="M436.88,137.66l-3-4.95a.73.73,0,0,1,.22-1,3.13,3.13,0,0,0,1-2.55c0-3.15-2.56-7.43-5.71-9.55s-5.72-1.28-5.72,1.87,2.56,7.44,5.72,9.56a7.26,7.26,0,0,0,2,1,2.75,2.75,0,0,1,1.59,1.27l2.78,4.66a1.73,1.73,0,0,0,.53.57.63.63,0,0,0,.53.14C437.17,138.61,437.17,138.14,436.88,137.66Zm-11.69-15.14c0-2.33,1.9-3,4.23-1.38s4.22,4.73,4.22,7.06-1.89,3-4.22,1.39S425.19,124.85,425.19,122.52Z"/><path class="cls-88" d="M508.51,166.54V180a.86.86,0,0,1-1.34.7l-58.59-36.92a2.17,2.17,0,0,1-1-1.82V128a.93.93,0,0,1,1.45-.76L507,163.79A3.27,3.27,0,0,1,508.51,166.54Z"/><g class="cls-89"><path class="cls-14" d="M504.41,167.36l-53.5-34.1a1.78,1.78,0,0,1-.79-1.31h0c0-.44.35-.57.79-.29l53.5,34.11a1.79,1.79,0,0,1,.8,1.31h0C505.21,167.52,504.85,167.65,504.41,167.36Z"/><path class="cls-14" d="M488.56,161.41l-37.65-24a1.76,1.76,0,0,1-.79-1.3h0c0-.44.35-.57.79-.29l37.65,24a1.76,1.76,0,0,1,.79,1.3h0C489.35,161.56,489,161.69,488.56,161.41Z"/><path class="cls-14" d="M468.94,153.13l-18-11.5a1.76,1.76,0,0,1-.79-1.3h0c0-.44.35-.57.79-.29l18,11.49a1.79,1.79,0,0,1,.8,1.31h0C469.74,153.28,469.38,153.41,468.94,153.13Z"/><path class="cls-14" d="M478.64,159.3,472,155.05a1.78,1.78,0,0,1-.8-1.3h0c0-.44.36-.57.8-.29l6.64,4.25a1.78,1.78,0,0,1,.8,1.3h0C479.44,159.45,479.08,159.58,478.64,159.3Z"/></g><path class="cls-90" d="M319.64,49.93v5.36a.34.34,0,0,1-.53.28l-6.27-3.94a.87.87,0,0,1-.41-.72V45.35a.37.37,0,0,1,.58-.3l6,3.78A1.3,1.3,0,0,1,319.64,49.93Z"/><path class="cls-91" d="M608.18,236.25v6a.38.38,0,0,1-.59.32l-7-4.42a.94.94,0,0,1-.46-.81v-6.22a.42.42,0,0,1,.65-.34l6.73,4.23A1.46,1.46,0,0,1,608.18,236.25Z"/><path class="cls-92" d="M570.47,220.86v4.7a.3.3,0,0,1-.47.24l-5.49-3.45a.76.76,0,0,1-.36-.63v-4.87a.33.33,0,0,1,.51-.27l5.27,3.31A1.16,1.16,0,0,1,570.47,220.86Z"/><path class="cls-93" d="M423.36,76.88v4.7a.3.3,0,0,1-.47.25l-5.49-3.46a.74.74,0,0,1-.35-.63V72.87a.31.31,0,0,1,.5-.26l5.27,3.31A1.12,1.12,0,0,1,423.36,76.88Z"/><path class="cls-94" d="M625,311.39v4.7a.3.3,0,0,1-.47.24L619,312.88a.76.76,0,0,1-.36-.63v-4.87a.33.33,0,0,1,.51-.27l5.27,3.31A1.16,1.16,0,0,1,625,311.39Z"/><path class="cls-95" d="M581.62,422.07v4.7a.3.3,0,0,1-.47.25l-5.49-3.46a.75.75,0,0,1-.36-.63v-4.87a.32.32,0,0,1,.51-.26l5.27,3.31A1.15,1.15,0,0,1,581.62,422.07Z"/><path class="cls-96" d="M149.24,163.56v4.7a.3.3,0,0,1-.47.24l-5.49-3.45a.76.76,0,0,1-.36-.63v-4.87a.33.33,0,0,1,.51-.27l5.27,3.32A1.15,1.15,0,0,1,149.24,163.56Z"/><path class="cls-97" d="M200.51,66.83V74a.45.45,0,0,1-.71.37l-8.32-5.22a1.15,1.15,0,0,1-.53-1V60.76a.48.48,0,0,1,.76-.4l8,5A1.74,1.74,0,0,1,200.51,66.83Z"/><path class="cls-98" d="M344.34,59.77v7.12a.45.45,0,0,1-.7.37L335.32,62a1.12,1.12,0,0,1-.54-1V53.7a.49.49,0,0,1,.77-.4l8,5A1.76,1.76,0,0,1,344.34,59.77Z"/><path class="cls-99" d="M506.88,102.44V107a.29.29,0,0,1-.45.24l-5.35-3.36a.73.73,0,0,1-.35-.62V98.54a.31.31,0,0,1,.49-.26l5.14,3.22A1.13,1.13,0,0,1,506.88,102.44Z"/><path class="cls-100" d="M600.11,195.84v4.58a.28.28,0,0,1-.45.24l-5.35-3.36a.73.73,0,0,1-.35-.62v-4.74a.31.31,0,0,1,.49-.26l5.14,3.22A1.14,1.14,0,0,1,600.11,195.84Z"/><path class="cls-101" d="M543.67,181.86v2.93a.18.18,0,0,1-.29.15L540,182.79a.44.44,0,0,1-.22-.39v-3a.2.2,0,0,1,.32-.16l3.28,2.06A.71.71,0,0,1,543.67,181.86Z"/><path class="cls-102" d="M466.69,118.27v2.93a.18.18,0,0,1-.29.15L463,119.2a.46.46,0,0,1-.22-.39v-3a.2.2,0,0,1,.31-.16l3.29,2.06A.7.7,0,0,1,466.69,118.27Z"/><path class="cls-103" d="M196.07,242.43v2.93a.19.19,0,0,1-.29.16l-3.42-2.16a.45.45,0,0,1-.23-.39v-3a.2.2,0,0,1,.32-.16l3.28,2.06A.71.71,0,0,1,196.07,242.43Z"/><path class="cls-104" d="M271.15,80.89l-6-3.74V74.33c0-.53-.59-1.22-1-1.2l-7,.36c-.39,0-.39.59,0,1.1l7,9.16c.45.58,1,.64,1,.1V81l6,3.74c.38.24.68.12.68-.25V82A1.51,1.51,0,0,0,271.15,80.89Z"/><path class="cls-12" d="M277.4,88.69l6,3.75v2.81c0,.53.59,1.22,1,1.2l7-.35c.39,0,.39-.6,0-1.11l-7-9.16c-.45-.57-1-.63-1-.1v2.82l-6-3.75c-.38-.24-.68-.12-.68.26v2.52A1.48,1.48,0,0,0,277.4,88.69Z"/><path class="cls-12" d="M312.29,107.47l-7.1-10.77c-.34-.51-.85-.82-1.19-.73l-7.1,1.89c-.29.08-.11.68.29.93L299,99.93v6.87a2.4,2.4,0,0,0,1.08,1.77L302.4,110c.31.19.56.1.56-.21v-3.41c0-.3.24-.39.54-.2l2.17,1.35a1.21,1.21,0,0,1,.53.87v3.42a1.22,1.22,0,0,0,.56.9l2.32,1.45c.6.38,1.09.19,1.09-.41V106.9L312,108C312.4,108.29,312.58,107.92,312.29,107.47Z"/></g></g></svg>